<?xml version="1.0" standalone="no"?>
<!DOCTYPE svg PUBLIC "-//W3C//DTD SVG 20010904//EN"
 "http://www.w3.org/TR/2001/REC-SVG-20010904/DTD/svg10.dtd">
<svg version="1.0" xmlns="http://www.w3.org/2000/svg"
 width="766.000000pt" height="645.000000pt" viewBox="0 0 766.000000 645.000000"
 preserveAspectRatio="xMidYMid meet">

<g transform="translate(0.000000,645.000000) scale(0.100000,-0.100000)"
fill="#000000" stroke="none">
<path d="M4740 5522 c0 -4 9 -15 20 -25 23 -19 26 -6 -63 -217 -44 -103 -45
-105 -76 -102 -62 5 -30 -24 72 -66 125 -50 147 -56 193 -48 69 14 97 107 48
165 l-26 31 32 0 c45 0 80 38 80 88 0 54 -43 92 -160 142 -93 40 -120 47 -120
32z m159 -87 c40 -20 44 -40 21 -92 -20 -45 -20 -46 -61 -40 -22 3 -43 7 -45
10 -4 4 48 137 54 137 2 0 16 -7 31 -15z m-59 -170 c35 -18 45 -50 30 -90 -23
-62 -59 -79 -113 -54 l-25 11 31 74 c17 41 35 74 39 74 5 0 22 -7 38 -15z"/>
<path d="M5120 5213 c-54 -20 -113 -114 -113 -181 0 -114 162 -185 244 -106
70 67 89 168 42 225 -43 51 -123 80 -173 62z m111 -53 c26 -15 25 -60 -5 -118
-47 -94 -109 -128 -141 -79 -19 29 -8 69 36 138 43 67 68 81 110 59z"/>
<path d="M5435 4996 c-57 -26 -125 -119 -125 -172 0 -33 34 -87 73 -115 32
-23 51 -29 90 -29 48 0 54 3 98 49 100 104 81 214 -48 268 -39 16 -50 16 -88
-1z m116 -56 c12 -7 19 -21 19 -39 0 -50 -96 -171 -136 -171 -31 0 -54 21 -54
48 0 52 95 172 136 172 9 0 24 -5 35 -10z"/>
<path d="M5835 4867 c6 -31 1 -38 -115 -151 -110 -108 -123 -118 -150 -113
-16 4 -31 3 -34 -2 -7 -10 118 -133 127 -125 4 4 4 18 1 31 -5 17 0 31 17 49
35 37 53 32 45 -13 -21 -111 -20 -116 17 -160 24 -29 37 -39 45 -31 6 6 7 19
2 33 -7 19 7 116 26 178 6 20 72 24 123 6 18 -6 35 -9 38 -6 3 4 -13 29 -37
57 -45 53 -73 65 -68 28 4 -25 -21 -35 -92 -37 l-45 -1 100 100 99 100 -44 45
c-24 25 -48 45 -53 45 -4 0 -5 -15 -2 -33z"/>
<path d="M6133 4373 c-8 -3 -11 -14 -7 -28 5 -20 -4 -30 -68 -73 -111 -75
-116 -77 -139 -56 -16 15 -19 15 -24 1 -8 -18 74 -146 93 -147 8 0 12 10 10
27 -3 24 6 34 67 75 78 53 127 62 145 28 17 -31 0 -51 -104 -120 -58 -37 -93
-67 -89 -74 29 -51 66 -95 74 -90 5 3 7 13 5 22 -8 24 0 33 86 90 82 55 108
84 108 118 0 34 -42 87 -78 98 -28 8 -30 10 -16 21 15 11 13 17 -17 62 -19 27
-40 48 -46 46z"/>
<path d="M6240 3933 c-96 -49 -121 -116 -77 -203 45 -91 115 -109 216 -58 84
44 110 112 72 193 -43 93 -116 117 -211 68z m168 -65 c18 -18 15 -63 -6 -81
-28 -26 -125 -67 -157 -67 -38 0 -55 16 -55 50 0 32 17 49 85 83 54 28 113 35
133 15z"/>
<path d="M6518 3638 c-2 -16 -33 -42 -111 -94 -134 -88 -130 -84 -118 -117 10
-25 15 -27 68 -28 32 0 76 -3 97 -7 l39 -7 -76 -53 c-45 -31 -77 -60 -77 -70
1 -41 14 -45 161 -51 101 -4 144 -10 147 -18 4 -13 32 -18 32 -6 0 4 -7 33
-16 64 -17 59 -39 72 -46 26 -3 -21 -9 -22 -98 -25 l-95 -3 98 67 c117 79 122
96 32 105 -33 4 -89 7 -125 8 l-65 1 85 50 85 50 18 -22 c32 -38 38 -8 14 72
-23 75 -43 99 -49 58z"/>
</g>
</svg>
