<?xml version="1.0" standalone="no"?>
<!DOCTYPE svg PUBLIC "-//W3C//DTD SVG 20010904//EN"
 "http://www.w3.org/TR/2001/REC-SVG-20010904/DTD/svg10.dtd">
<svg version="1.0" xmlns="http://www.w3.org/2000/svg"
 width="1352.000000pt" height="1036.000000pt" viewBox="0 0 1352.000000 1036.000000"
 preserveAspectRatio="xMidYMid meet">

<g transform="translate(0.000000,1036.000000) scale(0.100000,-0.100000)"
fill="#000000" stroke="none">
<path d="M2500 9185 c-102 -21 -234 -80 -260 -116 -3 -4 -33 -29 -67 -55 -34
-27 -78 -73 -98 -102 -29 -43 -171 -437 -721 -1999 -376 -1071 -689 -1952
-695 -1960 -9 -10 -51 -13 -181 -13 -156 0 -169 -1 -166 -18 3 -15 20 -17 166
-20 89 -1 162 -6 162 -11 0 -5 -52 -157 -115 -337 -64 -180 -113 -334 -110
-342 3 -7 13 -12 22 -10 14 2 47 87 139 348 l121 345 977 3 976 2 0 -2450 0
-2450 25 0 25 0 0 2450 0 2450 243 0 c133 0 252 3 265 6 l22 6 0 -2456 0
-2456 25 0 25 0 0 2459 0 2460 48 6 c88 13 274 81 317 117 5 5 25 19 42 32 50
35 112 119 128 173 13 41 15 189 15 965 l0 918 4588 2 c4579 3 4587 3 4587 23
0 20 -8 20 -4155 23 l-4155 2 -447 447 c-328 328 -448 454 -448 471 0 12 -17
75 -38 140 -21 64 -51 155 -65 202 -15 47 -62 150 -104 230 -72 135 -85 153
-183 250 -106 107 -253 214 -354 258 -45 20 -64 22 -270 21 -142 -1 -244 -6
-286 -14z m525 -40 c18 -9 41 -24 52 -34 11 -10 29 -22 41 -25 12 -4 22 -12
22 -17 0 -5 5 -9 11 -9 26 0 142 -91 229 -180 144 -146 208 -275 325 -645 31
-99 61 -185 66 -191 5 -6 9 -308 9 -735 -1 -398 2 -1010 6 -1359 8 -712 8
-701 -63 -788 -36 -45 -159 -132 -185 -132 -8 0 -18 -4 -24 -9 -17 -16 -178
-58 -265 -70 -109 -14 -2529 -16 -2529 -1 0 8 1312 3744 1361 3875 14 39 38
71 87 120 71 69 190 152 232 161 14 3 48 14 75 24 67 26 80 27 313 29 166 1
210 -2 237 -14z m1205 -1570 l395 -395 -398 0 -397 0 0 395 c0 217 1 395 3
395 1 0 180 -178 397 -395z"/>
<path d="M2233 8354 c-3 -8 -1 -20 4 -25 5 -5 211 -8 524 -7 506 3 514 3 514
23 0 20 -8 20 -518 23 -463 2 -518 1 -524 -14z"/>
</g>
</svg>
