<?xml version="1.0" standalone="no"?>
<!DOCTYPE svg PUBLIC "-//W3C//DTD SVG 20010904//EN"
 "http://www.w3.org/TR/2001/REC-SVG-20010904/DTD/svg10.dtd">
<svg version="1.0" xmlns="http://www.w3.org/2000/svg"
 width="634.000000pt" height="589.000000pt" viewBox="0 0 634.000000 589.000000"
 preserveAspectRatio="xMidYMid meet">

<g transform="translate(0.000000,589.000000) scale(0.100000,-0.100000)"
fill="#000000" stroke="none">
<path d="M3097 4798 c-8 -18 -42 -102 -77 -186 -53 -127 -61 -155 -49 -163 38
-24 175 -69 211 -69 80 0 136 95 93 157 -15 21 -14 23 10 29 38 9 65 50 65 97
0 32 -6 46 -34 72 -28 26 -172 95 -198 95 -4 0 -14 -15 -21 -32z m128 -81 c46
-26 54 -53 27 -87 -18 -23 -22 -23 -60 -11 -67 22 -68 24 -48 75 10 25 23 46
29 46 7 0 30 -11 52 -23z m-27 -170 c17 -13 15 -62 -4 -81 -20 -20 -43 -20
-94 0 -44 18 -44 18 -14 91 l14 33 43 -17 c23 -9 48 -21 55 -26z"/>
<path d="M3430 4522 c-81 -40 -123 -161 -81 -229 23 -36 87 -73 127 -73 75 0
145 75 151 163 5 66 -20 110 -80 137 -52 24 -73 25 -117 2z m110 -72 c24 -24
25 -39 6 -84 -32 -76 -99 -102 -132 -51 -15 24 -15 28 1 70 28 76 85 105 125
65z"/>
<path d="M3702 4319 c-18 -12 -44 -41 -58 -66 -22 -37 -26 -53 -22 -95 5 -43
11 -57 41 -84 37 -35 90 -50 132 -40 32 8 92 61 111 98 20 39 20 97 0 135 -35
69 -137 95 -204 52z m126 -55 c37 -26 27 -80 -26 -136 -29 -32 -66 -36 -94
-11 -33 30 -15 89 42 137 37 30 47 32 78 10z"/>
<path d="M3988 4102 l-148 -156 27 -28 27 -28 36 35 c45 44 75 47 67 6 -3 -15
-9 -50 -12 -77 -6 -45 -4 -51 23 -77 36 -34 34 -36 53 91 14 95 22 102 107
102 71 0 80 12 37 44 -34 26 -40 28 -108 21 l-72 -7 85 86 85 86 -30 30 -30
29 -147 -157z"/>
<path d="M4290 3719 c-144 -110 -137 -101 -111 -138 l22 -31 86 65 c47 36 94
65 105 65 18 0 58 -33 58 -48 0 -18 -33 -51 -104 -102 -41 -30 -75 -59 -75
-65 0 -11 34 -55 43 -55 4 0 47 30 96 67 106 80 128 114 106 166 -15 38 -50
67 -79 67 -16 0 -17 3 -7 15 9 11 8 20 -10 45 -12 16 -22 30 -23 29 -1 0 -49
-36 -107 -80z"/>
<path d="M4516 3458 c-22 -6 -57 -29 -82 -53 -40 -38 -44 -46 -44 -89 0 -155
165 -206 274 -85 31 33 36 46 36 88 0 64 -42 125 -97 140 -21 6 -40 10 -43 10
-3 -1 -22 -6 -44 -11z m111 -94 c15 -24 15 -29 2 -52 -38 -68 -134 -94 -166
-46 -15 24 -15 29 -2 52 38 68 134 94 166 46z"/>
<path d="M4660 3109 c-100 -73 -124 -96 -122 -113 5 -39 21 -44 107 -35 44 5
86 8 94 7 10 -2 -91 -93 -137 -123 -1 -1 3 -16 9 -34 10 -28 15 -32 38 -28 14
3 85 13 157 22 l132 18 -13 30 c-7 17 -18 33 -23 35 -6 2 -47 -4 -93 -13 -45
-8 -84 -13 -86 -11 -2 2 30 29 72 61 77 60 84 70 63 98 -11 14 -23 15 -92 6
-43 -5 -86 -9 -94 -7 -9 2 17 24 61 53 42 28 77 55 76 60 0 6 -5 22 -12 38
l-12 27 -125 -91z"/>
</g>
</svg>
