<?xml version="1.0" encoding="utf-8"?>
<!-- Generator: Adobe Illustrator 25.2.1, SVG Export Plug-In . SVG Version: 6.00 Build 0)  -->
<svg version="1.1" id="Layer_1" xmlns="http://www.w3.org/2000/svg" xmlns:xlink="http://www.w3.org/1999/xlink" x="0px" y="0px"
	 viewBox="0 0 1024 1093.94" style="enable-background:new 0 0 1024 1093.94;" xml:space="preserve">
<style type="text/css">
	.st0{fill:#FFFFFF;stroke:#231F20;stroke-miterlimit:10;}
	.st1{fill:#1C1E26;}
	.st2{fill:#DAE8D9;}
	.st3{fill:#009345;}
	.st4{fill:#37B34A;}
	.st5{fill:#006838;}
	.st6{fill:#8BC53F;}
	.st7{fill:#D6DE23;}
	.st8{fill:#F9EC31;}
	.st9{fill:#FFFFFF;}
</style>
<rect x="-0.8" className="st0" width="1024" height="1093.94"/>
<rect y="1023.94" className="st1" width="1024" height="70"/>
<g>
	<g>
		<g>
			<path className="st2" d="M278.12,1043.38h5.2c4.09,0,7.46,1.08,10.11,3.2c2.67,2.14,4,5.19,4,9.15c0,4.08-1.32,7.2-3.96,9.36
				c-2.65,2.17-6.06,3.24-10.24,3.24h-5.1V1043.38z M281.25,1065.5h1.1c1.62,0,3.16-0.16,4.6-0.48c1.45-0.33,2.71-0.86,3.79-1.62
				c1.07-0.78,1.94-1.77,2.58-2.99c0.64-1.22,0.97-2.74,0.97-4.55c0-1.79-0.32-3.32-0.95-4.59c-0.63-1.28-1.51-2.26-2.66-2.97
				c-1.12-0.72-2.38-1.25-3.75-1.58c-1.37-0.35-2.9-0.5-4.59-0.5h-1.1V1065.5z"/>
			<path className="st2" d="M302.03,1061.1c0.04,1.38,0.49,2.59,1.33,3.61c0.87,1.02,1.99,1.51,3.36,1.51c1.09,0,1.98-0.25,2.69-0.75
				c0.7-0.51,1.36-1.25,1.98-2.26l2.54,1.43c-0.73,1.32-1.75,2.35-3.03,3.12c-1.28,0.74-2.68,1.11-4.21,1.11
				c-2.34,0-4.2-0.76-5.6-2.31c-1.38-1.59-2.07-3.51-2.07-5.83c0-2.43,0.66-4.45,1.98-6.01c1.29-1.56,3.17-2.31,5.64-2.31
				c2.41,0,4.21,0.75,5.44,2.31c1.24,1.54,1.87,3.52,1.87,5.93v0.46H302.03z M310.93,1058.85c-0.19-1.2-0.63-2.15-1.39-2.83
				c-0.75-0.7-1.72-1.05-2.92-1.05c-0.57,0-1.12,0.08-1.62,0.27c-0.51,0.2-0.94,0.48-1.33,0.82c-0.38,0.36-0.71,0.77-0.98,1.25
				c-0.25,0.49-0.42,0.99-0.5,1.55H310.93z"/>
			<path className="st2" d="M322.77,1056.4c-0.45-0.92-1.11-1.37-2-1.37c-0.42,0-0.8,0.15-1.13,0.45c-0.34,0.3-0.5,0.67-0.5,1.08
				c0,0.4,0.13,0.75,0.38,1.02c0.25,0.28,0.6,0.53,1.05,0.78c0.29,0.13,0.51,0.25,0.67,0.3c0.15,0.09,0.4,0.21,0.77,0.37
				c0.17,0.07,0.34,0.16,0.46,0.2c0.13,0.04,0.23,0.08,0.3,0.12c1.1,0.51,1.99,1.09,2.64,1.76c0.64,0.65,0.97,1.55,0.97,2.64
				c0,1.46-0.54,2.69-1.6,3.67c-1.04,0.98-2.31,1.46-3.77,1.46c-0.61,0-1.19-0.08-1.74-0.25c-0.55-0.15-1.07-0.39-1.56-0.69
				c-0.48-0.3-0.89-0.66-1.26-1.09c-0.37-0.44-0.65-0.92-0.85-1.43l2.57-1.15c0.73,1.32,1.68,1.97,2.84,1.97
				c0.47,0,0.9-0.12,1.29-0.38c0.41-0.25,0.71-0.57,0.89-0.95c0.19-0.4,0.23-0.81,0.12-1.28c-0.11-0.43-0.45-0.87-1.03-1.27
				l-2.95-1.55c-0.5-0.26-0.95-0.53-1.33-0.8c-0.38-0.27-0.69-0.55-0.93-0.84c-0.25-0.3-0.43-0.63-0.56-0.98
				c-0.12-0.38-0.18-0.79-0.18-1.28c0-1.26,0.44-2.32,1.34-3.19c0.89-0.88,1.97-1.31,3.26-1.31c1.96,0,3.38,0.88,4.27,2.71
				L322.77,1056.4z"/>
			<path className="st2" d="M333.54,1045.77c0,0.55-0.2,1.03-0.6,1.42c-0.4,0.4-0.89,0.6-1.46,0.6c-0.58,0-1.07-0.19-1.47-0.6
				c-0.4-0.39-0.6-0.87-0.6-1.42c0-0.58,0.2-1.07,0.6-1.48c0.4-0.41,0.89-0.6,1.47-0.6c0.57,0,1.06,0.19,1.46,0.6
				C333.34,1044.7,333.54,1045.18,333.54,1045.77z M332.98,1068.34h-3.01v-15.49h3.01V1068.34z"/>
			<path className="st2" d="M352.39,1068.06c0,2.9-0.55,5.17-1.67,6.79c-1.12,1.58-3.1,2.37-5.94,2.37c-2.2,0-4-0.63-5.4-1.88
				c-1.38-1.25-2.09-2.96-2.13-5.13h2.99c0,1.39,0.44,2.46,1.28,3.24c0.87,0.75,2,1.13,3.4,1.13c1.71,0,2.88-0.49,3.52-1.5
				c0.63-1,0.94-2.38,0.94-4.2v-2.95h-0.07c-0.62,0.95-1.39,1.67-2.31,2.18c-0.92,0.52-1.92,0.77-2.98,0.77
				c-2.32,0-4.15-0.8-5.48-2.41c-1.33-1.62-1.98-3.59-1.98-5.96c0-2.24,0.67-4.12,2.02-5.69c1.36-1.62,3.12-2.41,5.31-2.41
				c2.28,0,4.11,1.04,5.42,3.08h0.07v-2.63h3V1068.06z M344.49,1066.22c1.57,0,2.8-0.54,3.69-1.61c0.91-1.11,1.37-2.45,1.37-4.01
				c0-1.55-0.46-2.86-1.37-3.95c-0.88-1.07-2.12-1.62-3.69-1.62c-1.5,0-2.7,0.55-3.61,1.67c-0.89,1.08-1.34,2.38-1.34,3.9
				c0,1.56,0.45,2.88,1.34,3.97C341.8,1065.69,343,1066.22,344.49,1066.22z"/>
			<path className="st2" d="M359.29,1054.93h0.07c0.43-0.83,1.09-1.44,1.93-1.88c0.85-0.45,1.77-0.65,2.77-0.65
				c1.02,0,1.88,0.14,2.6,0.45c0.7,0.3,1.28,0.74,1.71,1.32c0.44,0.58,0.75,1.27,0.94,2.1c0.19,0.82,0.28,1.78,0.28,2.82v9.24h-3
				v-8.87c0-1.53-0.23-2.64-0.66-3.34c-0.45-0.73-1.37-1.1-2.77-1.1c-0.52,0-0.95,0.05-1.3,0.15c-0.36,0.09-0.67,0.23-0.94,0.42
				c-0.27,0.19-0.49,0.41-0.67,0.65c-0.17,0.25-0.35,0.51-0.5,0.81c-0.07,0.14-0.13,0.35-0.19,0.59c-0.05,0.24-0.1,0.49-0.14,0.73
				c-0.05,0.26-0.09,0.51-0.1,0.77c-0.02,0.26-0.03,0.46-0.03,0.61v1.45v7.12h-3v-15.49h3V1054.93z"/>
			<path className="st2" d="M383.14,1039.61h3v15.82h0.07c1.38-2.03,3.19-3.03,5.44-3.03c2.17,0,3.95,0.8,5.31,2.41
				c1.35,1.56,2.03,3.45,2.03,5.69c0,2.37-0.67,4.34-2,5.96c-1.34,1.61-3.17,2.41-5.47,2.41c-1.06,0-2.06-0.25-2.99-0.77
				c-0.92-0.51-1.69-1.23-2.31-2.18h-0.07v2.42h-3V1039.61z M390.91,1066.22c1.58,0,2.81-0.54,3.7-1.61
				c0.91-1.11,1.36-2.45,1.36-4.01c0-1.55-0.45-2.86-1.36-3.95c-0.89-1.07-2.12-1.62-3.7-1.62c-1.49,0-2.7,0.55-3.61,1.67
				c-0.89,1.08-1.34,2.38-1.34,3.9c0,1.56,0.45,2.88,1.34,3.97C388.21,1065.69,389.42,1066.22,390.91,1066.22z"/>
			<path className="st2" d="M399.41,1052.85h3.5l5.27,9.83l4.91-9.83h3.37l-12.65,24.37h-3.4l6.15-11.53L399.41,1052.85z"/>
			<path className="st2" d="M431.59,1062.08l-2.87,6.26h-3.37l12-26.01l12.01,26.01h-3.37l-2.88-6.26H431.59z M437.36,1049.14
				l-4.47,10.11h8.94L437.36,1049.14z"/>
			<path className="st2" d="M454.26,1068.34h-3v-28.73h3V1068.34z"/>
			<path className="st2" d="M461.66,1068.34h-2.99v-28.73h2.99V1068.34z"/>
			<path className="st2" d="M473.07,1056.5v2.47h-7.29v-2.47H473.07z"/>
			<path className="st2" d="M484.75,1042.62c-0.94-0.43-1.61-0.62-2-0.62c-0.64,0-1.12,0.18-1.4,0.6c-0.29,0.4-0.48,0.9-0.6,1.5
				c-0.06,0.45-0.1,0.79-0.12,1.05c-0.01,0.24-0.02,0.6-0.02,1.03v6.66h4.14v2.78h-4.14v12.71h-2.99v-12.71h-1.37v-2.78h1.37v-7.55
				c0-4.06,1.67-6.09,5.03-6.09c0.74,0,1.43,0.13,2.11,0.4V1042.62z"/>
			<path className="st2" d="M489.39,1055.37h0.09c0.39-0.93,0.94-1.66,1.68-2.18c0.74-0.55,1.6-0.79,2.59-0.79
				c0.83,0,1.65,0.24,2.47,0.75l-1.37,2.72c-0.48-0.42-1.1-0.63-1.83-0.63c-1.53,0-2.56,0.62-3.07,1.84
				c-0.22,0.58-0.38,1.17-0.46,1.72c-0.07,0.55-0.11,1.2-0.11,1.92v7.62h-3v-15.49h3V1055.37z"/>
			<path className="st2" d="M499.69,1061.1c0.05,1.38,0.48,2.59,1.33,3.61c0.88,1.02,1.99,1.51,3.37,1.51c1.09,0,1.99-0.25,2.69-0.75
				c0.7-0.51,1.36-1.25,1.98-2.26l2.53,1.43c-0.73,1.32-1.73,2.35-3.02,3.12c-1.27,0.74-2.68,1.11-4.22,1.11
				c-2.32,0-4.2-0.76-5.6-2.31c-1.37-1.59-2.07-3.51-2.07-5.83c0-2.43,0.65-4.45,1.98-6.01c1.28-1.56,3.16-2.31,5.62-2.31
				c2.42,0,4.23,0.75,5.45,2.31c1.25,1.54,1.86,3.52,1.86,5.93v0.46H499.69z M508.59,1058.85c-0.18-1.2-0.64-2.15-1.39-2.83
				c-0.74-0.7-1.72-1.05-2.92-1.05c-0.57,0-1.12,0.08-1.61,0.27c-0.5,0.2-0.95,0.48-1.34,0.82c-0.39,0.36-0.71,0.77-0.97,1.25
				c-0.24,0.49-0.43,0.99-0.52,1.55H508.59z"/>
			<path className="st2" d="M515.96,1061.1c0.05,1.38,0.5,2.59,1.34,3.61c0.86,1.02,1.98,1.51,3.36,1.51c1.1,0,1.99-0.25,2.69-0.75
				c0.7-0.51,1.37-1.25,1.98-2.26l2.53,1.43c-0.73,1.32-1.73,2.35-3,3.12c-1.28,0.74-2.69,1.11-4.23,1.11c-2.33,0-4.2-0.76-5.6-2.31
				c-1.38-1.59-2.07-3.51-2.07-5.83c0-2.43,0.65-4.45,1.97-6.01c1.29-1.56,3.16-2.31,5.65-2.31c2.39,0,4.21,0.75,5.42,2.31
				c1.25,1.54,1.86,3.52,1.86,5.93v0.46H515.96z M524.88,1058.85c-0.18-1.2-0.65-2.15-1.39-2.83c-0.75-0.7-1.73-1.05-2.91-1.05
				c-0.59,0-1.13,0.08-1.63,0.27c-0.5,0.2-0.95,0.48-1.33,0.82c-0.39,0.36-0.73,0.77-0.97,1.25c-0.26,0.49-0.43,0.99-0.52,1.55
				H524.88z"/>
			<path className="st2" d="M537.57,1056.5v2.47h-7.29v-2.47H537.57z"/>
			<path className="st2" d="M553.15,1065.92h-0.05c-0.63,0.95-1.4,1.67-2.33,2.18c-0.92,0.52-1.92,0.77-2.98,0.77
				c-2.33,0-4.14-0.8-5.47-2.41c-1.34-1.62-2-3.59-2-5.96c0-2.24,0.67-4.12,2.03-5.69c1.36-1.62,3.12-2.41,5.31-2.41
				c2.24,0,4.05,1,5.44,3.03h0.05v-15.82h3v28.73h-3V1065.92z M548.24,1066.22c1.59,0,2.83-0.54,3.71-1.61
				c0.9-1.11,1.37-2.45,1.37-4.01c0-1.55-0.46-2.86-1.37-3.95c-0.88-1.07-2.12-1.62-3.71-1.62c-1.48,0-2.68,0.55-3.59,1.67
				c-0.89,1.08-1.34,2.38-1.34,3.9c0,1.56,0.45,2.88,1.34,3.97C545.56,1065.69,546.76,1066.22,548.24,1066.22z"/>
			<path className="st2" d="M561.05,1054.77c1.62-1.58,3.61-2.37,5.94-2.37c2.33,0,4.31,0.79,5.9,2.37c1.63,1.59,2.44,3.55,2.44,5.87
				c0,2.32-0.81,4.27-2.44,5.86c-1.58,1.59-3.57,2.37-5.9,2.37c-2.34,0-4.32-0.78-5.94-2.37c-1.59-1.59-2.39-3.54-2.39-5.86
				C558.66,1058.32,559.46,1056.36,561.05,1054.77z M561.65,1060.64c0,1.43,0.53,2.7,1.58,3.81c1.02,1.06,2.28,1.58,3.77,1.58
				c1.45,0,2.72-0.53,3.76-1.58c1.05-1.1,1.58-2.37,1.58-3.81c0-1.46-0.52-2.73-1.58-3.81c-1.04-1.07-2.31-1.59-3.76-1.59
				c-1.49,0-2.75,0.52-3.77,1.59C562.18,1057.91,561.65,1059.18,561.65,1060.64z"/>
			<path className="st2" d="M583.4,1062.72l4.6-10.73l4.57,10.73l4.53-9.86h3.41l-7.94,16.02l-4.57-10.35l-4.6,10.35l-7.93-16.02h3.4
				L583.4,1062.72z"/>
			<path className="st2" d="M605.01,1054.93h0.06c0.44-0.83,1.1-1.44,1.95-1.88c0.83-0.45,1.77-0.65,2.76-0.65
				c1.03,0,1.89,0.14,2.6,0.45c0.71,0.3,1.29,0.74,1.71,1.32c0.46,0.58,0.76,1.27,0.95,2.1c0.19,0.82,0.27,1.78,0.27,2.82v9.24h-3
				v-8.87c0-1.53-0.21-2.64-0.66-3.34c-0.46-0.73-1.37-1.1-2.78-1.1c-0.51,0-0.94,0.05-1.31,0.15c-0.34,0.09-0.66,0.23-0.92,0.42
				c-0.27,0.19-0.5,0.41-0.67,0.65c-0.18,0.25-0.33,0.51-0.5,0.81c-0.05,0.14-0.12,0.35-0.17,0.59c-0.06,0.24-0.1,0.49-0.16,0.73
				c-0.03,0.26-0.07,0.51-0.1,0.77c-0.01,0.26-0.03,0.46-0.03,0.61v1.45v7.12h-3v-15.49h3V1054.93z"/>
			<path className="st2" d="M622.58,1068.34h-3v-28.73h3V1068.34z"/>
			<path className="st2" d="M627.85,1054.77c1.63-1.58,3.61-2.37,5.94-2.37c2.32,0,4.3,0.79,5.9,2.37c1.62,1.59,2.43,3.55,2.43,5.87
				c0,2.32-0.81,4.27-2.43,5.86c-1.6,1.59-3.58,2.37-5.9,2.37c-2.33,0-4.31-0.78-5.94-2.37c-1.61-1.59-2.4-3.54-2.4-5.86
				C625.45,1058.32,626.25,1056.36,627.85,1054.77z M628.46,1060.64c0,1.43,0.52,2.7,1.57,3.81c1.02,1.06,2.28,1.58,3.77,1.58
				c1.47,0,2.72-0.53,3.76-1.58c1.06-1.1,1.58-2.37,1.58-3.81c0-1.46-0.53-2.73-1.58-3.81c-1.04-1.07-2.28-1.59-3.76-1.59
				c-1.49,0-2.75,0.52-3.77,1.59C628.98,1057.91,628.46,1059.18,628.46,1060.64z"/>
			<path className="st2" d="M659.5,1068.34h-3v-2.42h-0.07c-1.33,1.98-3.1,2.95-5.3,2.95c-2.29,0-4.11-0.8-5.48-2.41
				c-1.33-1.62-1.98-3.59-1.98-5.96c0-2.24,0.68-4.12,2.02-5.69c1.36-1.62,3.14-2.41,5.33-2.41c2.23,0,4.04,1,5.41,3.03h0.07v-2.57
				h3V1068.34z M651.6,1066.22c1.57,0,2.81-0.54,3.71-1.61c0.9-1.11,1.35-2.45,1.35-4.01c0-1.55-0.45-2.86-1.35-3.95
				c-0.9-1.07-2.14-1.62-3.71-1.62c-1.49,0-2.7,0.55-3.6,1.67c-0.89,1.08-1.33,2.38-1.33,3.9c0,1.56,0.44,2.88,1.33,3.97
				C648.9,1065.69,650.11,1066.22,651.6,1066.22z"/>
			<path className="st2" d="M675.05,1065.92h-0.07c-0.62,0.95-1.4,1.67-2.32,2.18c-0.91,0.52-1.91,0.77-2.98,0.77
				c-2.32,0-4.13-0.8-5.47-2.41c-1.34-1.62-1.99-3.59-1.99-5.96c0-2.24,0.67-4.12,2.04-5.69c1.35-1.62,3.11-2.41,5.29-2.41
				c2.25,0,4.06,1,5.44,3.03h0.07v-15.82h3v28.73h-3V1065.92z M670.15,1066.22c1.58,0,2.81-0.54,3.7-1.61
				c0.92-1.11,1.36-2.45,1.36-4.01c0-1.55-0.45-2.86-1.36-3.95c-0.89-1.07-2.12-1.62-3.7-1.62c-1.5,0-2.69,0.55-3.61,1.67
				c-0.88,1.08-1.32,2.38-1.32,3.9c0,1.56,0.44,2.88,1.32,3.97C667.46,1065.69,668.65,1066.22,670.15,1066.22z"/>
			<path className="st2" d="M686.65,1066.96c0,0.53-0.18,0.99-0.56,1.36c-0.38,0.37-0.84,0.55-1.38,0.55c-0.52,0-1-0.19-1.37-0.55
				c-0.37-0.37-0.57-0.83-0.57-1.36c0-0.51,0.2-0.96,0.57-1.35c0.37-0.37,0.85-0.56,1.37-0.56c0.53,0,1,0.19,1.38,0.56
				C686.47,1065.99,686.65,1066.45,686.65,1066.96z"/>
			<path className="st2" d="M703.05,1057.26c-1.24-1.39-2.74-2.1-4.47-2.1c-1.45,0-2.67,0.56-3.69,1.64c-1.01,1.09-1.5,2.38-1.5,3.8
				c0,1.62,0.5,2.91,1.5,3.93c1.04,1.04,2.33,1.57,3.88,1.57c1.61,0,3.04-0.7,4.28-2.07v3.81c-1.29,0.69-2.72,1.02-4.29,1.02
				c-2.31,0-4.3-0.77-5.94-2.35c-1.62-1.55-2.43-3.47-2.43-5.79c0-2.38,0.81-4.36,2.43-5.96c1.62-1.58,3.65-2.37,6.1-2.37
				c1.61,0,2.99,0.33,4.14,1.02V1057.26z"/>
			<path className="st2" d="M707.3,1054.77c1.62-1.58,3.6-2.37,5.94-2.37c2.34,0,4.31,0.79,5.91,2.37c1.61,1.59,2.42,3.55,2.42,5.87
				c0,2.32-0.8,4.27-2.42,5.86c-1.6,1.59-3.57,2.37-5.91,2.37c-2.33,0-4.31-0.78-5.94-2.37c-1.6-1.59-2.41-3.54-2.41-5.86
				C704.89,1058.32,705.7,1056.36,707.3,1054.77z M707.9,1060.64c0,1.43,0.5,2.7,1.56,3.81c1.02,1.06,2.28,1.58,3.77,1.58
				c1.46,0,2.73-0.53,3.77-1.58c1.04-1.1,1.56-2.37,1.56-3.81c0-1.46-0.53-2.73-1.56-3.81c-1.04-1.07-2.31-1.59-3.77-1.59
				c-1.5,0-2.75,0.52-3.77,1.59C708.4,1057.91,707.9,1059.18,707.9,1060.64z"/>
			<path className="st2" d="M727.2,1054.81h0.08c0.43-0.72,1.02-1.29,1.78-1.76c0.74-0.43,1.53-0.65,2.35-0.65c1.95,0,3.45,0.9,4.5,2.73
				c0.48-0.83,1.17-1.5,2.02-2c0.84-0.5,1.79-0.73,2.78-0.73c3.46,0,5.17,2.22,5.17,6.68v9.26h-3v-8.77c0-0.39-0.02-0.8-0.05-1.18
				c-0.04-0.38-0.09-0.75-0.19-1.13c-0.09-0.35-0.22-0.68-0.41-1c-0.17-0.3-0.41-0.58-0.72-0.83c-0.4-0.26-0.91-0.39-1.53-0.39
				c-0.63,0-1.16,0.13-1.59,0.39c-0.43,0.25-0.76,0.57-0.99,0.92c-0.25,0.35-0.43,0.84-0.56,1.37c-0.12,0.54-0.21,1.05-0.25,1.5
				c-0.02,0.43-0.05,0.95-0.05,1.51v7.62h-3.01v-8.2c0-0.53,0-0.96-0.03-1.31c-0.02-0.37-0.09-0.8-0.2-1.35
				c-0.11-0.57-0.25-0.98-0.43-1.25c-0.18-0.3-0.45-0.58-0.83-0.83c-0.38-0.24-0.84-0.36-1.37-0.36c-1.54,0-2.52,0.67-2.96,1.99
				c-0.21,0.61-0.34,1.21-0.41,1.74c-0.06,0.56-0.09,1.21-0.09,1.96v7.62h-3v-15.49h3V1054.81z"/>
		</g>
		<g>
			<g>
				<path className="st2" d="M208.16,1059.22c14.16,0,28.32,0,42.48,0c1.29,0,1.29-1.99,0-1.99c-14.16,0-28.32,0-42.48,0
					C206.88,1057.23,206.88,1059.22,208.16,1059.22L208.16,1059.22z"/>
			</g>
			<g>
				<path className="st2" d="M773.36,1059.22c14.15,0,28.31,0,42.47,0c1.3,0,1.3-1.99,0-1.99c-14.15,0-28.32,0-42.47,0
					C772.08,1057.23,772.08,1059.22,773.36,1059.22L773.36,1059.22z"/>
			</g>
		</g>
	</g>
</g>
<g>
	<path className="st3" d="M426.63,602.9c-7.34,4.17-14.32,8.45-20.48,13.99c-19.85,17.85-25.14,40.15-20.4,65.55
		c2.94,15.73,8.52,30.32,19.89,42.06c14.75,15.24,33.43,20.05,53.92,20.14c25.32,0.1,46.93-10.07,67.5-23.59
		c19.4-12.75,37.49-27.35,56.92-40.05c11.22-7.33,22.83-14.1,36.29-16.23c12.12-1.91,23.79-0.34,33.81,7.59
		c7.37,5.84,10.19,16.18,6.98,24.74c-3.15,8.4-12.19,14.39-21.36,14.14c-6.36-0.17-12.47-5.41-13.26-11.37
		c-0.85-6.34,3.83-13.99,9.57-15.91c2.91-0.97,5.24-0.31,7.14,1.93c2.08,2.46,1.27,4.93-0.3,7.27c-0.46,0.68-1.12,1.23-1.66,1.86
		c-0.94,1.1-1.37,2.49-0.58,3.67c0.89,1.32,2.31,1.62,3.97,1.08c3.79-1.22,6.32-3.4,6.84-7.6c0.8-6.53-1.12-11.44-6.02-14.08
		c-5.31-2.86-11.08-3.15-16.97-2.47c-16.15,1.85-28.46,10.83-40.31,21.08c-24.86,21.51-49.86,42.91-77.58,60.74
		c-30.38,19.55-63.03,21.91-96.73,10.62c-18.35-6.14-28.12-21.75-37.45-37.41c-23.34-39.18-8.13-91.61,19.51-114.4
		c8.02-6.61,16.86-11.58,27.11-13.76C423.99,602.27,425.15,601.85,426.63,602.9z"/>
	<path className="st4" d="M592.47,564.27c-17.11,0.76-33.39,5.5-49.6,10.59c-23.19,7.27-46.13,15.43-70.1,19.93
		c-14.95,2.81-29.97,4.59-44.97,0.46c-19.1-5.26-31.12-21.34-29.43-39.11c1.04-10.93,9.28-18.6,20.99-19.55
		c8.82-0.72,16.99,5.4,19.55,14.55c1.07,3.85,0.39,7.3-2.32,10.18c-3.34,3.55-8.23,2.71-10.47-1.65c-0.96-1.87-1.7-4.55-4.32-3.9
		c-2.46,0.61-3.27,3.31-3.35,5.62c-0.2,5.87,2.45,10.53,6.95,14.13c9.56,7.64,20.84,8.82,32.48,8.23c17.65-0.9,34.41-6,51.21-10.96
		c24.45-7.23,48.52-15.91,73.82-19.98c10.38-1.67,20.79-2.96,31.1,0.51c15.78,5.32,23.48,25.22,15.4,39.76
		c-3.51,6.31-9.4,9.22-16.72,8.25c-5.92-0.78-10.62-5.03-11.88-11.1c-0.87-4.18,0.42-7.88,3.63-10.69c2.06-1.8,4.48-2.3,6.69-0.17
		c2.15,2.07,1.63,4.08-0.42,5.97c-0.63,0.58-1.88,1.19-0.8,2.35c1.03,1.11,1.86,0.01,2.53-0.53c4.08-3.22,3.84-7.51,2.35-11.75
		c-2.76-7.87-9.62-9.89-16.85-11.08C596.17,564.03,594.3,564.27,592.47,564.27z"/>
	<path className="st5" d="M548.01,837.19c-24.29,0-48.68,0-73.49,0c2.02-3.28,4.07-6.39,5.89-9.62c8.92-15.81,13.05-32.29,6.53-50.09
		c-0.68-1.85-0.12-2.4,1.29-2.88c7.52-2.59,14.69-5.99,21.73-9.66c1.48-0.77,2.36-0.49,3.59,0.15c6.77,3.49,13.61,6.81,20.83,9.29
		c1.38,0.47,2.76,0.84,1.96,3.06c-7.25,19.98-1.45,37.8,9.26,54.78c0.88,1.4,1.77,2.79,2.63,4.2
		C548.29,836.51,548.15,836.73,548.01,837.19z"/>
	<path className="st4" d="M491.37,640.5c7.32,6.83,10.6,15.54,11.76,24.72c2.6,20.74-1.56,40.3-12.7,58.08
		c-6,9.57-14.58,15.73-26.06,17.45c-4.25,0.64-8.25,0.03-12.24-1.29c-6.32-2.1-10.7-6.05-11.68-12.88
		c-1.08-7.54,1.22-13.81,7.74-18.14c3.01-2,6.31-3.41,9.77-4.56c28.61-9.56,40.66-31.09,33.96-60.51
		C491.69,642.41,491.54,641.45,491.37,640.5z"/>
	<path className="st6" d="M476.12,433.98c-1.07-5.12-3.16-8.62-7.7-9.62c-5.99-1.32-10.76,3.19-11.09,10.21
		c-0.61,13.12,10.51,26.1,24.94,28.67c13.58,2.42,27.18,0.8,40.75-0.42c15.38-1.39,30.85-3.84,46.09,0.51
		c14.64,4.17,25.7,12.59,29.98,28.04c0.21,0.78,0.15,1.63,0.31,3.67c-1.65-2.6-2.66-4.26-3.74-5.88
		c-7.93-11.9-20.2-15.87-33.36-17.84c-17.6-2.64-35.05-0.18-52.6,1.51c-16.18,1.56-32.48,1.45-47.79-5.73
		c-18.6-8.73-26.16-31.14-15.86-47.19c4.58-7.14,13.97-11.28,22.03-9.42C477.56,412.67,484.16,422.73,476.12,433.98z"/>
	<path className="st4" d="M588.03,667.83c1.51-6.49,1.54-13.05,1.19-19.62c-0.84-15.69-15.28-25.66-30.18-21.07
		c-6.59,2.03-9.88,6.85-11.67,12.97c-1.3,4.44-1.93,9.08-3.28,13.5c-1.97,6.45-6.34,9.88-11.61,9.63
		c-5.04-0.23-8.96-3.85-10.53-10.31c-2.12-8.71,0.65-16.38,5.78-23.33c12.67-17.15,37.39-20.46,54.24-7.32
		C595.07,632.51,598.08,653.96,588.03,667.83z"/>
	<path className="st4" d="M541.31,559.94c4.68-2.32,8.37-4,11.92-5.92c10.91-5.89,21.02-12.84,28.02-23.34
		c4.05-6.07,6.46-12.68,3.89-20.56c-4.74,3.49-9.31,6.51-15.48,4.33c-5.19-1.84-8.46-5.14-9.33-10.5
		c-0.96-5.86,0.75-10.87,5.83-14.33c12.33-8.4,30.8-0.15,33.14,14.73c2.26,14.38-4.13,25.41-13.81,34.98
		c-11.4,11.27-25.17,18.13-40.99,20.82C543.9,560.26,543.25,560.08,541.31,559.94z"/>
	<path className="st4" d="M505.17,569.55c-13.86-3.52-21.96-12.64-25.01-26.29c-4.77-21.37,0.29-40.11,15.78-55.67
		c5.35-5.37,11.82-9.3,19.97-7.7c5.2,1.02,9.04,5.17,9.22,9.8c0.2,5-2.39,8.54-6.94,10.47c-3.8,1.62-7.87,2.65-11.53,4.52
		c-22,11.24-25.17,43.96-5.99,61.04C502.15,567.02,503.67,568.27,505.17,569.55z"/>
	<path className="st6" d="M556.5,458.58c5.72-3.25,10.83-6.96,12.24-13.87c2.05-10.05,0.24-19.39-5.45-27.9
		c-3.68-5.5-9.48-6.97-15.58-7.33c-3.97-0.24-7.98,0.22-11.96,0.1c-6.03-0.19-9.95-3.26-10.43-7.87c-0.53-5.1,2.06-8.48,7.95-10.37
		c16.8-5.37,39.3,6.7,45.08,24.44c3.32,10.2,4.11,20.55-0.9,30.52C573.18,454.76,565.6,457.96,556.5,458.58z"/>
	<path className="st4" d="M453.02,603.45c9.6-1.39,19.14-2.28,28.62-3.73c15.65-2.4,30.66-6.86,45.26-12.91
		c4.88-2.02,9.96-3.54,15.37-3.62c3.2-0.05,6.13,0.54,7.54,3.68c1.47,3.26,0.14,6.12-2.13,8.59c-5.98,6.51-13.95,9.47-22.11,11.56
		c-16.12,4.15-32.47,3.9-48.88,1.62C468.67,607.53,460.71,606.25,453.02,603.45z"/>
	<path className="st6" d="M452.93,405.35c6.7-7.18,14.06-8.5,21.85-7.81c22.41,2,37.29,28.31,27.75,48.77c-1.9,4.07-4.8,7.17-8.8,9.12
		c-3.88,1.89-7.81,1.82-11.19-1.12c-3.06-2.65-3.46-5.96-2.51-9.93c0.98-4.09,2.7-7.81,4.6-11.44c3.59-6.85,5.66-13.64,0.38-20.49
		c-5.7-7.38-13.44-9.95-22.52-8.81C459.72,403.99,456.98,404.62,452.93,405.35z"/>
	<path className="st3" d="M571.73,655.59c1.36-0.89,2.44-1.6,3.52-2.31c2.84-1.87,4.06-4.48,2.88-7.7c-1.15-3.13-3.66-4.53-7.03-4.47
		c-4.44,0.09-9.64,3.77-10.69,7.68c-1.29,4.8,0.72,9.84,5.07,12.45c3.95,2.37,8.49,3.36,12.7,5.13c5.49,2.31,6.3,6.61,2.08,10.93
		c-3.25,3.33-7.3,4.51-11.84,3.8c-10.48-1.64-19.31-11.95-20.89-24.3c-1.19-9.32,5.24-19.7,14.72-23.75
		c7.25-3.09,16.06-1.3,21.01,4.27c5.97,6.73,3.61,17.46-4.25,19.48C576.49,657.45,574.27,656.98,571.73,655.59z"/>
	<path className="st4" d="M469.06,693.69c-5.16,3.56-10.73,4.29-16.56,2.91c-6.6-1.56-13.11-3.53-19.75-4.93
		c-10.15-2.14-17.71,1.34-20.75,9.15c-2.62,6.72-0.69,11.48,5.98,13.35c-1.3-2.47-2-4.74-1.7-7.19c0.31-2.5,1.64-4.32,3.77-5.5
		c3.66-2.03,6.95-1.49,9.84,1.6c3.61,3.85,4.17,9.19,1.38,13.69c-3.22,5.18-9.97,8.26-15.8,7.19c-7.96-1.45-13.82-7.09-15.09-14.52
		c-2.46-14.39,6.75-25.63,21.37-26.27c7.95-0.35,15.58,0.98,22.85,4.07C452.45,690.58,460.49,692.95,469.06,693.69z"/>
	<path className="st5" d="M361.76,705.16c-0.6,17.22,5.84,31.06,18.37,42.49c5.46,4.98,6.63,10.46,4.18,15.05
		c-2.35,4.41-7.88,6.78-13.76,5.52c-4.96-1.06-8.43-4.37-11.15-8.52c-3.36-5.12-4.78-10.93-5.53-16.86
		C352.19,729.45,355.17,716.95,361.76,705.16z"/>
	<path className="st3" d="M408.44,619.5c-6.75,17.42-5,32.84,3.58,47.87c3.88,6.8,2.35,13.09-2.73,16.28
		c-5.48,3.44-13.14,1.63-17.53-4.47c-5.58-7.75-5.1-16.45-3.4-25.26C390.77,641.41,398.28,628.11,408.44,619.5z"/>
	<path className="st3" d="M600.52,664.9c2-9.55,2.77-18.98-0.14-28.49c-1.56-5.08-3.73-9.8-6.6-14.24c-1.16-1.8-2.41-3.56-3.39-5.46
		c-2.85-5.52-1.96-11.03,2.2-14.41c4.13-3.36,11.42-3.2,15.72,0.41c4.53,3.81,7.2,8.82,7.87,14.57
		C618.28,635.43,612.3,651.08,600.52,664.9z"/>
	<path className="st3" d="M467.34,615.44c21.23,11.86,29.46,41.47,17.63,62.24c-2.76,4.85-6.43,8.92-12.42,9.82
		c-6.71,1.01-11.7-4.63-9.81-11.09c1.04-3.54,2.93-6.63,5.44-9.35c10.3-11.17,11.8-23.81,6.33-37.65
		C472.58,624.53,470.1,619.96,467.34,615.44z"/>
	<path className="st3" d="M626.02,647.46c6.76-0.29,13.05-0.63,19.07,1.71c2.49,0.97,4.88,2.09,6.67,4.11c1.5,1.7,2.3,3.8,1.33,5.97
		c-0.95,2.11-3.14,2.5-5.13,2.22c-4.23-0.58-8.4-1.56-12.62-2.22c-9.16-1.44-18,0.7-27.16,2.94c3.05-5.41,6.09-10.32,8.66-15.46
		c3.8-7.59,4.86-15.79,4.63-24.2c-0.08-3,0.07-5.99,0.84-8.91c0.95-3.57,3.09-5.98,6.97-5.79c4.15,0.21,5.52,3.48,5.86,6.88
		c0.51,5.12,0,10.18-1.5,15.22C631.88,635.96,628.96,641.46,626.02,647.46z"/>
	<path className="st4" d="M502.88,648.38c6.9,6.5,11.66,14.48,14.9,23.37c5.3,14.52,6.06,29.36,2.56,44.4
		c-0.33,1.43-0.92,2.84-1.62,4.13c-1.68,3.08-3.99,5.26-7.88,4.98c-3.84-0.28-5.89-2.76-7.33-5.9c-2.09-4.56-0.68-9.14,0.27-13.65
		c1.73-8.22,4.33-16.24,4.65-24.75C508.86,669.74,507.04,658.99,502.88,648.38z"/>
	<path className="st4" d="M479.76,552.15c-11.15-14.71-18.32-30.5-17.68-49.2c0.21-6.2,1.26-12.17,4.37-17.6
		c1.91-3.34,4.33-6.39,8.47-7.01c4.96-0.75,9.34,0.41,12,5.06c2.69,4.72,1.3,9.16-1.96,12.9c-4.16,4.77-8.3,9.38-9.86,15.81
		c-3.08,12.69-2.57,24.9,3.9,36.54C479.49,549.53,480.77,550.35,479.76,552.15z"/>
	<path className="st5" d="M661.27,745.22c-4.62,11.24-10.97,20.79-23.85,23.64c-6.12,1.35-13.09-2.58-15.33-8.31
		c-2.18-5.59-0.08-10.41,6.2-14.3c11.49-0.64,19.66-7.05,26.68-15.41c1.38-1.65,2.66-3.39,4.16-4.95c1.11-1.15,2.42-1.94,3.93-0.83
		c1.3,0.96,0.99,2.35,0.49,3.63C661.47,734.02,661.77,739.67,661.27,745.22z"/>
	<path className="st4" d="M581.9,482.95c-4.85,0.62-8.64,0.24-12.38,1.3c-13.35,3.8-17.62,16.3-9.14,27.18
		c2.24,2.87,4.64,5.66,6.51,8.76c2.07,3.42,2.85,7.17-0.32,10.54c-3.01,3.2-6.56,3.23-10.47,1.76c-7.75-2.91-10.97-9.36-12.44-16.66
		c-2.86-14.3,2.98-31.97,21.91-36.07C570.8,478.61,576.35,478.34,581.9,482.95z"/>
	<path className="st6" d="M498.59,456.77c5.76-5.39,9.53-10.74,10.91-17.57c1.77-8.69,1.84-17.03-3.66-24.62
		c-2.21-3.06-3.52-6.4-1.92-10.22c1.55-3.71,4.33-5.85,8.37-5.97c4.87-0.14,8.23,2.38,10,6.74c3.07,7.56,2.11,15.22,0.08,22.84
		C519.27,439.56,508.89,452.57,498.59,456.77z"/>
	<path className="st6" d="M513.77,380.18c4.58-9.05,9.65-17.58,21.27-18.26c10.81-0.64,18.99,7.5,18.27,18.07
		c-0.36,5.26-4.46,9.16-9.77,9.26c-4.91,0.1-7.63-2.84-8.09-8.73c-0.81-10.51-3.35-11.75-12.53-6.28
		C519.81,376.09,516.91,378.22,513.77,380.18z"/>
	<path className="st6" d="M511.01,380.89c-4.87-3.18-8.51-5.95-12.5-8.08c-6.54-3.49-9.76-1.59-10.1,5.64
		c-0.19,3.99,0.15,7.98-4.61,10.03c-3.76,1.62-6.94,0.6-9.64-1.71c-3.56-3.05-4.44-7.06-3.19-11.72
		c2.88-10.67,13.88-16.18,24.27-11.83C502.85,366.41,506.94,372.82,511.01,380.89z"/>
	<path className="st6" d="M513.85,371.84c0.49-10.73,1.87-21.15,8.13-30.16c4.31-6.21,9.02-8.18,14.62-6.36c6.12,1.99,8,7,4.39,12.41
		c-1.35,2.03-3.26,3.75-5.14,5.35C528.58,359.31,520.39,364.46,513.85,371.84z"/>
	<path className="st7" d="M510.27,373c-6.63-8.71-14.85-13.59-21.98-19.72c-1.13-0.97-2.35-1.85-3.36-2.93
		c-4.11-4.44-4.85-9.24-2.01-12.37c3.52-3.88,9.9-4.53,14.39-1.19c5.4,4.02,8.07,9.9,9.98,16.1
		C509.19,358.99,510.44,365.23,510.27,373z"/>
	<path className="st6" d="M461.51,524.16c-9.78-8.16-20.85-13.86-32.62-18.38c-3.09-1.19-5.84-3.2-7.63-6.16
		c-1.75-2.89-2.21-5.91-0.13-8.8c2.21-3.07,5.22-2.84,8.46-1.81c8.25,2.63,14.22,8.33,19.77,14.55
		C454.71,509.54,458.31,516.63,461.51,524.16z"/>
	<path className="st4" d="M496.92,569.74c-13.91,8.37-28.45,14.21-45.15,10.63c-3.65-0.78-7.38-2.25-7.26-6.84
		c0.13-4.66,3.41-6.61,7.68-7.72c3.45-0.9,6.75-0.16,9.81,0.63C473.47,569.41,484.94,571.23,496.92,569.74z"/>
	<path className="st5" d="M522.05,758.33c5.43-3.37,9.91-5.99,14.22-8.86c5.56-3.69,10.05-8.6,14.71-13.31c2.81-2.84,5.83-5.4,9.87-6.42
		c3.43-0.87,6.32,0.11,8.42,2.77c2.21,2.79,1.16,5.57-0.76,8.13c-5.74,7.63-14.01,11.22-22.7,14.01
		C538.48,757.01,530.87,757.82,522.05,758.33z"/>
	<path className="st3" d="M590.05,622.44c-7.95-4.76-15.33-10.45-24.59-12.44c-3.38-0.72-6.81-1.28-10.24-1.71
		c-3.73-0.47-7.25-1.79-7.69-5.74c-0.44-3.98,2.79-6.06,6.3-7.28c3.96-1.38,7.95-0.83,11.73,0.49
		C578.39,600.23,586.01,609.65,590.05,622.44z"/>
	<path className="st4" d="M560.08,454.31c0.28-5.8,1.2-7.71-1.12-15.42c-0.6-2.08-3.28-4.68-4.05-6.71c-0.84-2.2,0.51-6.14,3.62-7.24
		c2.36-0.83,4.17-0.25,5.88,1.33c1.93,1.78,2.8,4.15,3.19,6.63C568.91,441.32,565.96,448.3,560.08,454.31z"/>
	<path className="st6" d="M509.46,455.9c12.37-9.99,25.78-17.09,42.3-15.42c3.08,0.31,6.17,1.68,6.54,5.62
		c0.36,3.87-1.74,6.29-5.03,7.71c-2.76,1.19-5.78,1.74-8.77,1.28C532.79,453.27,521.14,453.32,509.46,455.9z"/>
	<path className="st4" d="M518.84,654.32c7.91,13.59,20.8,19.95,34.6,25.18c3.15,1.2,6.82,2.92,5.44,7.53
		c-1.37,4.58-5.31,4.67-8.98,4.06c-13.32-2.22-21.51-10.96-27.35-22.36C520.31,664.35,519.14,659.56,518.84,654.32z"/>
	<path className="st5" d="M668.71,728.35c2.21,11.21,8.25,19.39,18,25.12c3.71,2.18,4.67,6.79,2.82,9.95
		c-1.96,3.34-6.49,4.82-10.42,3.37c-3.07-1.13-5.45-3.14-7.17-5.89C665.55,750.63,665.07,739.75,668.71,728.35z"/>
	<path className="st4" d="M444.49,532.69c0.03-4.35-0.19-7.82-1.51-11.12c-1.25-3.14-3.53-4.61-6.94-4.59
		c-3.31,0.02-5.89,1.11-7.05,4.37c-1.09,3.09-1.3,6.1,2.06,8.59c0.33-3.71,1.01-6.83,5.58-6.76c3.12,0.05,4.44,1.75,5,4.45
		c0.88,4.25-0.5,7.65-4.39,9.56c-7.7,3.79-16.48-3.41-15.89-12.9c0.31-5,4.52-10.44,9.19-11.9c5.39-1.68,12.12,0.41,15.26,4.73
		C448.7,521.1,448.42,526.84,444.49,532.69z"/>
	<path className="st7" d="M511.95,344.17c-2.85-7.61-6.68-13.62-8.07-20.66c-0.83-4.2,0.18-7.59,3.67-10.01
		c2.87-1.99,6.08-1.83,8.91-0.04c3.66,2.32,4.6,6.06,3.68,10.05C518.56,330.43,515.13,336.64,511.95,344.17z"/>
	<path className="st4" d="M413.06,596.54c-8.08,4.03-13.71,9.64-19.94,14.46c-0.13,0.1-0.26,0.21-0.39,0.31
		c-4.65,3.3-9.33,3.33-11.42,0.08c-2.66-4.13-1.01-10.26,3.8-12.74C393.71,594.21,402.78,594.51,413.06,596.54z"/>
	<path className="st5" d="M661.27,745.22c-1.76-2.1-1.69-4.14-0.78-6.78c1.27-3.66-0.69-8.11,2.56-11.46c0.37-0.39-0.11-1.39-0.87-1.45
		c-0.56-0.04-1.35,0.18-1.7,0.58c-1.52,1.73-2.85,3.62-4.36,5.36c-6.32,7.28-13.18,13.74-23.23,15.41
		c-1.62,0.27-3.25,0.86-4.61-0.64c2.59-2.12,5.79-3.01,8.73-4.44c14.48-7.06,23.63-18.66,28.59-34.11
		C668.92,715.97,666.63,734.8,661.27,745.22z"/>
	<path className="st5" d="M659.41,714.05c-4.94,8.12-10.12,14.55-18.62,17.33c-4.58,1.5-9.4-0.9-10.45-4.9
		c-0.92-3.53,1.29-6.31,6.57-7.62C644.05,717.08,651.57,717.2,659.41,714.05z"/>
	<path className="st4" d="M466,690.89c-7.13-1.06-12.42-3.47-16.63-7.97c-3.55-3.8-3.87-8.83-0.84-12.74c1.92-2.49,4.44-4.16,7.73-3
		c3.09,1.08,4.28,3.8,3.94,6.77C459.48,680.18,460.6,685.74,466,690.89z"/>
	<path className="st3" d="M638.11,644.35c-5.76,0.17-6.27-0.64-3.71-5.76c1.76-3.52,3.34-7.15,5.23-10.6c2.24-4.11,5.42-4.47,8.8-1.22
		c5.85,5.63,3.75,14.41-3.92,16.78C642.37,644.2,640.25,644.18,638.11,644.35z"/>
	<path className="st4" d="M448.45,685.18c-8.96-1.7-17.79-3.5-25.31-8.83c-3.46-2.45-4.11-7.02-1.87-9.52c2.41-2.69,6.15-2.37,9.44,1.18
		C436.28,674.03,442.13,679.76,448.45,685.18z"/>
	<path className="st6" d="M422.29,509.73c-2.75,5.43-3.69,11.21-3.88,17.11c-0.12,3.69-1.63,6.23-5.43,6.39
		c-4.3,0.18-6.07-2.79-6.6-6.58C405.35,519.06,413.34,508.82,422.29,509.73z"/>
	<path className="st5" d="M349,742.92c5.32,5.59,2.47,18.25-5.12,22.21c-3.17,1.66-6.43,2.02-8.93-1.18c-2.61-3.34-1.31-6.22,1.68-8.47
		C341.38,751.92,345.87,748.14,349,742.92z"/>
	<path className="st5" d="M547.68,758.52c8.09-4.2,16.43-5.76,25.21-3.32c2.78,0.77,5.64,2,4.53,5.71c-1.01,3.37-4.01,3.72-6.91,3.2
		c-2.24-0.41-4.42-1.28-6.54-2.16C558.76,759.82,553.33,758.95,547.68,758.52z"/>
	<path className="st4" d="M570.12,459.63c6.74-2.83,12.95-3.27,19.33-1.56c0.92,0.25,1.84,0.75,2.61,1.33c2.74,2.07,3.53,4.98,2.01,7.88
		c-1.66,3.18-4.73,2.54-7.35,1.27C581.26,465.94,576.45,462.1,570.12,459.63z"/>
	<path className="st5" d="M524.1,761.46c7.08-2.3,12.81-3.17,18.67-1.2c1.06,0.36,2.17,0.87,2.98,1.61c2.2,2.04,3.56,4.46,1.73,7.44
		c-1.96,3.19-4.74,2.42-7.36,1.12C534.98,767.87,530.69,763.88,524.1,761.46z"/>
	<path className="st3" d="M408.56,592.2c-5.7,0.21-10.5-0.88-15.05-3.08c-2.27-1.1-4.17-2.64-5.32-5.02c-1.29-2.68-0.42-4.8,1.51-6.69
		c2.25-2.21,4.45-1.16,6.11,0.59C400.01,582.44,403.98,587.08,408.56,592.2z"/>
	<path className="st3" d="M468.69,610.7c5.44,0.65,9.99,1.15,14.52,1.76c2.66,0.36,5.44,0.85,6.08,4.1c0.43,2.18,0.08,4.24-1.94,5.74
		c-2.57,1.91-4.7,0.47-6.85-0.75C476.02,618.99,472.37,615.51,468.69,610.7z"/>
	<path className="st6" d="M459.23,511.55c-3.51-3.52-5.67-6.99-7.53-10.63c-1.06-2.07-0.68-4.2,1.05-5.92c1.51-1.49,3.35-2.41,5.39-1.48
		c2.09,0.96,2.38,3.03,2.21,5.11C460.03,502.68,459.66,506.72,459.23,511.55z"/>
	<path className="st4" d="M573.42,455.53c2.42-4.02,4.42-7.42,6.52-10.76c1.36-2.16,3.31-3.7,5.71-1.87c2.32,1.77,2.35,4.37,0.48,6.58
		C583.01,453.16,578.81,454.83,573.42,455.53z"/>
	<path className="st4" d="M576.19,551.01c4.05-4.09,7.41-7.58,10.88-10.96c2.24-2.18,5.01-3.47,7.36-0.59c2.26,2.78,1.54,5.9-1.32,7.99
		C588.31,550.96,582.81,551.74,576.19,551.01z"/>
	<path className="st7" d="M489.6,359.23c-3.55,0-6.53,0.07-9.52-0.03c-1.88-0.06-3.67-0.64-4.49-2.54c-0.54-1.24,0.36-2.23,1.13-3.08
		c1.44-1.57,3.28-1.54,5.04-0.79C484.8,354.11,487.58,355.81,489.6,359.23z"/>
	<path className="st7" d="M534.3,359.16c2.32-3.29,5.03-5.6,8.62-6.58c2.57-0.7,4.8,0.18,5.29,3.03c0.47,2.77-1.92,3.33-3.85,3.48
		C541.14,359.34,537.89,359.16,534.3,359.16z"/>
	<path className="st7" d="M511.96,359.02c-1.28-2.91-2.31-5.07-3.2-7.3c-0.84-2.12-0.9-4.18,1.18-5.73c1.34-1,2.77-0.97,4.1-0.07
		c2.06,1.38,1.63,3.66,1.2,5.41C514.63,353.78,513.27,356.05,511.96,359.02z"/>
	<g>
		<polygon className="st8" points="512,275.93 533.12,282.8 554.25,262.21 512,275.93 		"/>
		<polygon className="st7" points="554.25,262.21 525.05,257.97 512,275.93 		"/>
		<rect x="512" y="275.93" className="st8" width="0" height="0"/>
		<polygon className="st8" points="512,275.93 512,275.93 512,275.93 		"/>
		<polygon className="st8" points="512,275.93 512,275.93 512,275.93 		"/>
		<polygon className="st8" points="512,275.93 512,275.93 512,275.93 		"/>
		<polygon className="st8" points="512,275.93 525.05,257.97 512,231.51 512,275.93 		"/>
		<polygon className="st7" points="485.89,311.87 512,298.14 512,275.93 		"/>
		<polygon className="st8" points="512,298.14 538.11,311.87 512,275.93 		"/>
		<polygon className="st7" points="512,275.93 512,275.93 538.11,311.87 533.12,282.8 		"/>
		<polygon className="st8" points="498.94,257.97 469.75,262.21 512,275.93 		"/>
		<polygon className="st7" points="512,275.93 512,231.51 498.94,257.97 512,275.93 		"/>
		<polygon className="st7" points="469.75,262.21 490.88,282.8 512,275.93 		"/>
		<polygon className="st8" points="512,275.93 490.88,282.8 485.89,311.87 512,275.93 		"/>
	</g>
	<path className="st8" d="M504,382.61c0,3.67-2.97,6.64-6.64,6.64s-6.64-2.97-6.64-6.64c0-3.67,2.97-6.64,6.64-6.64
		S504,378.94,504,382.61z"/>
	<path className="st7" d="M473.61,434.21c0,3.67-2.97,6.64-6.64,6.64c-3.67,0-6.64-2.97-6.64-6.64c0-3.67,2.97-6.64,6.64-6.64
		C470.64,427.57,473.61,430.54,473.61,434.21z"/>
	<path className="st7" d="M474.89,391.43c0,2.46-2,4.46-4.46,4.46s-4.46-2-4.46-4.46c0-2.46,2-4.46,4.46-4.46
		S474.89,388.97,474.89,391.43z"/>
	<path className="st7" d="M481.55,457c0,1.92-1.56,3.49-3.49,3.49c-1.92,0-3.49-1.56-3.49-3.49c0-1.93,1.56-3.49,3.49-3.49
		C479.99,453.52,481.55,455.08,481.55,457z"/>
	<circle className="st7" cx="487.28" cy="460.35" r="2.66"/>
	<path className="st7" d="M476.58,448.03c0,3.03-2.46,5.49-5.49,5.49c-3.03,0-5.49-2.46-5.49-5.49c0-3.03,2.46-5.49,5.49-5.49
		C474.12,442.54,476.58,445,476.58,448.03z"/>
	<path className="st7" d="M435.37,575.64c0,1.44-1.17,2.62-2.62,2.62s-2.62-1.17-2.62-2.62c0-1.44,1.17-2.62,2.62-2.62
		S435.37,574.19,435.37,575.64z"/>
	<path className="st7" d="M441.66,578.15c0,1.1-0.89,2-2,2c-1.1,0-2-0.89-2-2s0.89-2,2-2C440.77,576.15,441.66,577.04,441.66,578.15z"/>
	<path className="st7" d="M431.64,568.9c0,2.28-1.84,4.12-4.12,4.12c-2.28,0-4.12-1.84-4.12-4.12c0-2.28,1.84-4.12,4.12-4.12
		C429.79,564.78,431.64,566.63,431.64,568.9z"/>
	<path className="st7" d="M484.9,393.73c0,2.03-1.64,3.67-3.67,3.67c-2.03,0-3.67-1.64-3.67-3.67c0-2.03,1.64-3.67,3.67-3.67
		C483.26,390.06,484.9,391.7,484.9,393.73z"/>
	<circle className="st7" cx="490.34" cy="397.79" r="3.29"/>
	<path className="st7" d="M538.58,493.86c3.32,2.59,3.92,7.38,1.34,10.7c-2.59,3.32-7.38,3.92-10.7,1.34c-3.32-2.59-3.92-7.38-1.34-10.7
		C530.47,491.88,535.26,491.28,538.58,493.86z"/>
	
		<ellipse transform="matrix(0.9923 -0.124 0.124 0.9923 -76.8809 63.2314)" className="st3" cx="469.61" cy="649.34" rx="5.1" ry="5.1"/>
	<circle className="st3" cx="462" cy="661.67" r="6.03"/>
	<path className="st3" d="M474.64,634.48c1.58,1.23,1.86,3.5,0.63,5.07c-1.23,1.58-3.5,1.86-5.07,0.63c-1.58-1.23-1.86-3.5-0.63-5.07
		C470.79,633.54,473.06,633.25,474.64,634.48z"/>
	<path className="st3" d="M471.17,624.44c1.1,0.86,1.3,2.45,0.44,3.55c-0.86,1.1-2.45,1.3-3.55,0.44c-1.1-0.86-1.3-2.45-0.44-3.55
		C468.47,623.78,470.06,623.58,471.17,624.44z"/>
	<path className="st7" d="M545.85,480.04c2.21,1.72,2.61,4.9,0.89,7.11c-1.72,2.21-4.9,2.61-7.11,0.89c-2.21-1.72-2.61-4.9-0.89-7.11
		C540.46,478.72,543.64,478.32,545.85,480.04z"/>
	<path className="st6" d="M478.3,556.19c2.21,1.72,2.61,4.9,0.89,7.11c-1.72,2.21-4.9,2.61-7.11,0.89c-2.21-1.72-2.61-4.9-0.89-7.11
		C472.9,554.87,476.09,554.47,478.3,556.19z"/>
	<path className="st6" d="M579.3,519.29c2.21,1.72,2.61,4.9,0.89,7.11c-1.72,2.21-4.9,2.61-7.11,0.89c-2.21-1.72-2.61-4.9-0.89-7.11
		C573.9,517.96,577.09,517.57,579.3,519.29z"/>
	<path className="st6" d="M558.89,536.49c3.19,2.48,3.76,7.08,1.28,10.26c-2.48,3.19-7.07,3.76-10.26,1.28
		c-3.19-2.48-3.76-7.07-1.28-10.26C551.11,534.58,555.7,534.01,558.89,536.49z"/>
	<path className="st6" d="M489.07,562.96c1.35,1.05,1.59,2.99,0.54,4.33c-1.05,1.35-2.99,1.59-4.33,0.54c-1.35-1.05-1.59-2.99-0.54-4.33
		C485.79,562.15,487.73,561.91,489.07,562.96z"/>
	<path className="st6" d="M571.46,533.56c1.35,1.05,1.59,2.99,0.54,4.33c-1.05,1.35-2.99,1.59-4.33,0.54c-1.35-1.05-1.59-2.99-0.54-4.33
		C568.17,532.76,570.11,532.52,571.46,533.56z"/>
	<path className="st6" d="M529.65,610.78c2.74-0.59,5.44,1.14,6.03,3.88c0.6,2.74-1.14,5.44-3.88,6.03c-2.74,0.6-5.44-1.14-6.03-3.88
		C525.18,614.08,526.92,611.38,529.65,610.78z"/>
	<path className="st6" d="M556.28,576.52c3.4-0.74,6.75,1.42,7.49,4.81c0.74,3.4-1.42,6.75-4.81,7.49c-3.4,0.74-6.75-1.42-7.49-4.81
		C550.73,580.61,552.89,577.26,556.28,576.52z"/>
	<path className="st6" d="M541.76,606.84c1.67-0.36,3.31,0.69,3.67,2.36c0.36,1.67-0.69,3.31-2.36,3.67c-1.67,0.36-3.31-0.69-3.67-2.36
		C539.03,608.85,540.09,607.21,541.76,606.84z"/>
	<path className="st7" d="M558.23,473.22c1.76,1.37,2.07,3.9,0.71,5.66c-1.37,1.76-3.9,2.07-5.65,0.71c-1.76-1.37-2.07-3.9-0.71-5.65
		C553.94,472.17,556.47,471.85,558.23,473.22z"/>
	<path className="st7" d="M500.8,404.06c0,1.61-1.31,2.92-2.92,2.92c-1.61,0-2.92-1.31-2.92-2.92c0-1.61,1.31-2.92,2.92-2.92
		C499.49,401.14,500.8,402.44,500.8,404.06z"/>
	<path className="st8" d="M533.56,382.61c0,3.67-2.97,6.64-6.64,6.64c-3.67,0-6.64-2.97-6.64-6.64c0-3.67,2.97-6.64,6.64-6.64
		C530.59,375.97,533.56,378.94,533.56,382.61z"/>
	<path className="st8" d="M518.75,389.25c0,3.67-2.97,6.64-6.64,6.64c-3.67,0-6.64-2.97-6.64-6.64c0-3.67,2.97-6.64,6.64-6.64
		C515.78,382.61,518.75,385.58,518.75,389.25z"/>
	<g>
		<g>
			<g>
				<g>
					<path className="st6" d="M526.3,548.05c-0.48,0.28-0.98,0.49-1.51,0.61c-0.23,0.05-0.47,0.08-0.72,0.11
						c-3.84,3.99-7.6,8.05-11.3,12.18c8.99,2.16,19.21-0.56,25.77-7.07C534.98,550.99,530.83,548.99,526.3,548.05z"/>
				</g>
				<g>
					<path className="st6" d="M504.13,541.41c3.61-1.25,4.81-4.17,6.59-7.24c0.63-1.1,1.33-2.16,2.06-3.18
						c0.38-0.53,0.77-1.04,1.17-1.56c0.13-0.17,0.59-0.56,0.61-0.76c0.05-0.37-1.08-0.49-1.38-0.59c-0.76-0.26-1.53-0.52-2.29-0.78
						c-1.49-0.51-2.98-1.02-4.48-1.53c-2.46-0.84-4.92-1.68-7.37-2.52c-2.06,3.01-3.34,6.64-3.52,10.76
						c-0.13,3.01,0.12,6.09,0.8,9.04C499.03,542.73,501.69,542.25,504.13,541.41z"/>
				</g>
				<g>
					<path className="st6" d="M531.05,542.91c-0.78,1.04-1.67,2.33-2.71,3.44c4.3,1.15,8.22,3.16,11.65,5.95
						c0.58-0.69,1.13-1.41,1.63-2.18c2.07-3.15,3.28-6.66,3.69-10.25c-3.02-1.91-6.06-3.79-9.1-5.66
						C534.78,537.28,533.09,540.21,531.05,542.91z"/>
				</g>
				<g>
					<path className="st6" d="M523.5,529.93c-1.32-0.49-2.68-0.89-4.07-1.08c-0.64-0.09-1.37-0.24-1.98,0.03
						c-0.61,0.28-1.01,0.87-1.42,1.38c-0.59,0.76-1.16,1.53-1.71,2.33c-1.05,1.54-2.02,3.13-2.91,4.77
						c-0.45,0.81-0.92,1.61-1.47,2.36c-0.27,0.37-0.57,0.73-0.88,1.07c-0.21,0.23-0.78,0.56-0.91,0.78c-0.58,0.98,2.53,2,3.14,2.26
						c1.23,0.54,2.5,1,3.79,1.38c2.49,0.74,5.08,1.23,7.69,1.31c1.01,0.03,1.95-0.28,2.83-0.78c1.5-0.86,2.77-2.3,3.73-3.56
						c1.76-2.31,3.14-4.91,4.37-7.54c0.15-0.32,0.3-0.65,0.45-0.97c-0.95-0.12-1.89-0.34-2.81-0.61
						C528.63,532.24,526.13,530.91,523.5,529.93z"/>
				</g>
				<g>
					<path className="st6" d="M505.32,544.92c0.12-0.25,0.94-1.54,0.78-1.77c-0.25-0.35-1.11,0.24-1.38,0.33
						c-0.81,0.27-1.64,0.47-2.47,0.63c-1.64,0.31-3.3,0.46-4.96,0.65c-0.17,0.02-0.35,0.04-0.52,0.06c0.91,3.13,2.31,6.06,4.25,8.58
						c0.7-1.27,1.38-2.54,2.04-3.83C503.84,548.04,504.6,546.49,505.32,544.92z"/>
				</g>
				<g>
					<path className="st6" d="M515.38,547.31c-2.65-0.63-5.18-1.52-7.54-2.78c-1.63,3.61-3.43,7.14-5.35,10.6
						c2.15,2.26,4.81,4.05,8.03,5.16c3.5-3.93,7.07-7.81,10.71-11.62C519.21,548.37,517.11,547.72,515.38,547.31z"/>
				</g>
				<g>
					<path className="st6" d="M511.02,525.08c0.87,0.3,1.73,0.59,2.6,0.89c1.75,0.6,2.05,1,3.67,0.25c3.18-1.49,5.96-6.67,7.92-9.5
						c0.67-0.96,1.31-1.94,1.94-2.93c-9.24-1.93-20.75,0.88-26.73,7.68c1.37,0.47,2.74,0.93,4.11,1.4
						C506.69,523.6,508.85,524.34,511.02,525.08z"/>
				</g>
				<g>
					<path className="st6" d="M537.71,532.65c2.59,1.59,5.18,3.19,7.75,4.81c0.05-3.32-0.57-6.62-1.8-9.69
						c-1.38,1.14-2.77,2.28-4.15,3.42C538.89,531.7,538.31,532.22,537.71,532.65z"/>
				</g>
				<g>
					<path className="st6" d="M525.53,519.94c-1.46,2.01-3,3.98-4.6,5.88c-0.23,0.27-0.48,0.6-0.75,0.95c3.83,0.59,7.27,2.43,10.95,3.79
						c0.92,0.34,1.84,0.74,2.82,0.85c2.41,0.25,3.99-1.7,5.67-3.09c1.04-0.85,2.07-1.71,3.11-2.56c-2.14-4.18-5.5-7.76-9.95-10.03
						c-1.09-0.56-2.26-1.02-3.48-1.39C528.11,516.24,526.86,518.11,525.53,519.94z"/>
				</g>
			</g>
			<g>
				<path className="st6" d="M519.88,509.81c-1.34-0.15-3.13,0.79-4.33,0.5c-1.1-0.27-1.53-2.85-2.3-3.87
					c-0.29-0.39-0.64-0.75-1.09-0.95c-0.61-0.28-1.95-0.09-2.19,0.68c-0.08,0.28,0.06,0.57,0.2,0.82c0.35,0.66,1.03,1.83,1.26,2.84
					c0.02,0.24,0.04,0.48,0.06,0.73c-0.01,0.11-0.02,0.23-0.05,0.33c-0.29,0.92-1.63,0.96-2.56,1.26c-2.01,0.63-3.48,2.37-3.71,4.46
					c-0.07,0.61-0.07,1.2,0.04,1.66c0,0,12.26-3.59,18.51-4.36C523.73,513.9,523.3,510.19,519.88,509.81z"/>
			</g>
		</g>
	</g>
	<g>
		<g>
			<g>
				<g>
					<path className="st6" d="M614.31,541.26c-0.23,0.19-0.47,0.35-0.74,0.45c-0.12,0.05-0.24,0.09-0.37,0.12
						c-1.66,2.44-3.27,4.91-4.84,7.41c4.91,0.33,10.03-2.02,12.9-6.02C619.13,542.02,616.78,541.35,614.31,541.26z"/>
				</g>
				<g>
					<path className="st6" d="M602.07,539.76c1.78-0.98,2.15-2.62,2.81-4.39c0.23-0.63,0.5-1.25,0.8-1.86c0.15-0.31,0.31-0.62,0.47-0.92
						c0.05-0.1,0.26-0.35,0.25-0.45c-0.01-0.2-0.61-0.16-0.78-0.19c-0.42-0.07-0.85-0.14-1.27-0.2c-0.83-0.13-1.66-0.27-2.49-0.4
						c-1.37-0.22-2.73-0.44-4.1-0.66c-0.81,1.77-1.16,3.79-0.89,5.97c0.2,1.59,0.61,3.18,1.23,4.68
						C599.51,540.91,600.87,540.42,602.07,539.76z"/>
				</g>
				<g>
					<path className="st6" d="M616.34,538.13c-0.32,0.61-0.67,1.37-1.11,2.05c2.36,0.22,4.6,0.92,6.65,2.08
						c0.24-0.42,0.47-0.84,0.66-1.29c0.81-1.84,1.12-3.79,1.02-5.71c-1.76-0.73-3.52-1.45-5.29-2.15
						C617.8,534.84,617.17,536.53,616.34,538.13z"/>
				</g>
				<g>
					<path className="st6" d="M611.21,531.99c-0.74-0.14-1.49-0.23-2.24-0.2c-0.34,0.01-0.74,0-1.04,0.2c-0.3,0.2-0.45,0.55-0.62,0.85
						c-0.24,0.45-0.47,0.91-0.69,1.37c-0.42,0.9-0.78,1.83-1.1,2.76c-0.16,0.47-0.34,0.93-0.56,1.37c-0.11,0.22-0.23,0.44-0.37,0.64
						c-0.09,0.14-0.36,0.37-0.41,0.49c-0.21,0.57,1.51,0.82,1.85,0.91c0.7,0.17,1.4,0.3,2.11,0.39c1.38,0.17,2.78,0.19,4.15,0
						c0.53-0.07,1-0.32,1.41-0.66c0.71-0.59,1.25-1.46,1.64-2.21c0.72-1.37,1.21-2.86,1.62-4.35c0.05-0.18,0.1-0.37,0.15-0.55
						c-0.51,0.02-1.02-0.01-1.53-0.07C614.12,532.75,612.69,532.27,611.21,531.99z"/>
				</g>
				<g>
					<path className="st6" d="M603.02,541.49c0.04-0.14,0.36-0.89,0.25-1c-0.16-0.16-0.56,0.22-0.7,0.3c-0.4,0.21-0.82,0.39-1.24,0.55
						c-0.83,0.31-1.69,0.54-2.54,0.79c-0.09,0.03-0.18,0.05-0.27,0.08c0.76,1.56,1.76,2.98,3,4.12c0.25-0.73,0.5-1.46,0.73-2.19
						C602.52,543.27,602.77,542.38,603.02,541.49z"/>
				</g>
				<g>
					<path className="st6" d="M608.51,541.85c-1.45-0.1-2.85-0.33-4.21-0.79c-0.53,2.04-1.16,4.06-1.86,6.05
						c1.33,0.99,2.89,1.7,4.68,1.99c1.49-2.38,3.01-4.73,4.58-7.06C610.61,542.06,609.45,541.91,608.51,541.85z"/>
				</g>
				<g>
					<path className="st6" d="M604.23,530.57c0.48,0.08,0.96,0.15,1.44,0.23c0.97,0.16,1.17,0.34,1.95-0.2c1.54-1.07,2.53-4.03,3.31-5.7
						c0.26-0.57,0.51-1.14,0.76-1.71c-5.03-0.18-10.82,2.32-13.35,6.43c0.76,0.12,1.52,0.25,2.28,0.37
						C601.82,530.18,603.02,530.37,604.23,530.57z"/>
				</g>
				<g>
					<path className="st6" d="M618.92,532.15c1.5,0.6,3,1.21,4.5,1.83c-0.27-1.75-0.89-3.43-1.82-4.93c-0.62,0.72-1.25,1.44-1.87,2.17
						C619.45,531.55,619.2,531.87,618.92,532.15z"/>
				</g>
				<g>
					<path className="st6" d="M611.39,526.57c-0.59,1.19-1.22,2.36-1.89,3.5c-0.1,0.16-0.2,0.36-0.31,0.57
						c2.07-0.03,4.03,0.62,6.09,1.01c0.51,0.1,1.03,0.23,1.56,0.19c1.29-0.08,1.94-1.25,2.7-2.13c0.47-0.54,0.93-1.08,1.4-1.62
						c-1.5-2-3.58-3.58-6.12-4.38c-0.62-0.2-1.28-0.33-1.95-0.42C612.41,524.39,611.92,525.49,611.39,526.57z"/>
				</g>
			</g>
			<g>
				<path className="st6" d="M607.51,521.75c-0.72,0.04-1.57,0.7-2.23,0.65c-0.6-0.04-1.06-1.36-1.55-1.83
					c-0.19-0.18-0.41-0.34-0.66-0.4c-0.34-0.09-1.04,0.13-1.09,0.55c-0.02,0.15,0.08,0.29,0.18,0.41c0.24,0.31,0.71,0.87,0.91,1.38
					c0.03,0.13,0.07,0.25,0.1,0.38c0.01,0.06,0.01,0.12,0,0.18c-0.07,0.51-0.77,0.65-1.23,0.89c-1,0.51-1.61,1.56-1.55,2.68
					c0.02,0.33,0.07,0.64,0.17,0.87c0,0,6.11-2.98,9.33-3.95C609.9,523.56,609.34,521.65,607.51,521.75z"/>
			</g>
		</g>
	</g>
	<g>
		<g>
			<g>
				<g>
					<path className="st4" d="M614.6,703.3c-0.17,0.14-0.35,0.26-0.55,0.34c-0.09,0.03-0.18,0.06-0.27,0.09
						c-1.24,1.82-2.44,3.66-3.61,5.53c3.67,0.24,7.49-1.51,9.62-4.49C618.2,703.88,616.44,703.37,614.6,703.3z"/>
				</g>
				<g>
					<path className="st4" d="M605.47,702.19c1.33-0.73,1.61-1.96,2.1-3.27c0.17-0.47,0.38-0.93,0.6-1.39c0.11-0.23,0.23-0.46,0.35-0.69
						c0.04-0.07,0.19-0.26,0.19-0.34c-0.01-0.15-0.46-0.12-0.58-0.14c-0.32-0.05-0.63-0.1-0.95-0.15c-0.62-0.1-1.24-0.2-1.86-0.3
						c-1.02-0.16-2.04-0.33-3.06-0.49c-0.61,1.32-0.86,2.83-0.66,4.45c0.15,1.19,0.46,2.38,0.92,3.49
						C603.56,703.05,604.57,702.68,605.47,702.19z"/>
				</g>
				<g>
					<path className="st4" d="M616.11,700.97c-0.24,0.46-0.5,1.03-0.83,1.53c1.76,0.16,3.43,0.69,4.96,1.55
						c0.18-0.31,0.35-0.63,0.49-0.96c0.6-1.37,0.84-2.83,0.76-4.26c-1.31-0.54-2.63-1.08-3.94-1.61
						C617.2,698.52,616.73,699.78,616.11,700.97z"/>
				</g>
				<g>
					<path className="st4" d="M612.29,696.4c-0.55-0.1-1.11-0.17-1.67-0.15c-0.26,0.01-0.55,0-0.77,0.15c-0.22,0.15-0.34,0.41-0.46,0.64
						c-0.18,0.34-0.35,0.68-0.51,1.03c-0.31,0.67-0.58,1.36-0.82,2.06c-0.12,0.35-0.25,0.69-0.42,1.02
						c-0.08,0.16-0.17,0.33-0.27,0.48c-0.07,0.1-0.27,0.27-0.3,0.37c-0.16,0.42,1.12,0.61,1.38,0.68c0.52,0.13,1.05,0.22,1.58,0.29
						c1.03,0.13,2.07,0.14,3.1,0c0.4-0.05,0.75-0.24,1.05-0.49c0.53-0.44,0.93-1.09,1.22-1.65c0.54-1.02,0.9-2.13,1.21-3.25
						c0.04-0.14,0.07-0.27,0.11-0.41c-0.38,0.02-0.76,0-1.14-0.05C614.45,696.96,613.39,696.6,612.29,696.4z"/>
				</g>
				<g>
					<path className="st4" d="M606.17,703.48c0.03-0.11,0.27-0.67,0.19-0.74c-0.12-0.12-0.42,0.17-0.52,0.22
						c-0.3,0.16-0.61,0.29-0.93,0.41c-0.62,0.23-1.26,0.4-1.9,0.59c-0.07,0.02-0.13,0.04-0.2,0.06c0.57,1.16,1.31,2.22,2.24,3.08
						c0.19-0.54,0.37-1.09,0.54-1.63C605.8,704.8,605.99,704.15,606.17,703.48z"/>
				</g>
				<g>
					<path className="st4" d="M610.27,703.75c-1.08-0.07-2.13-0.25-3.14-0.59c-0.4,1.52-0.86,3.03-1.39,4.51
						c0.99,0.74,2.16,1.27,3.49,1.48c1.11-1.78,2.25-3.53,3.42-5.27C611.84,703.91,610.97,703.79,610.27,703.75z"/>
				</g>
				<g>
					<path className="st4" d="M607.07,695.33c0.36,0.06,0.72,0.12,1.08,0.17c0.72,0.12,0.87,0.26,1.45-0.15
						c1.15-0.79,1.89-3.01,2.47-4.25c0.2-0.42,0.38-0.85,0.57-1.28c-3.75-0.14-8.07,1.73-9.96,4.8c0.57,0.09,1.14,0.18,1.7,0.27
						C605.28,695.04,606.18,695.19,607.07,695.33z"/>
				</g>
				<g>
					<path className="st4" d="M618.04,696.51c1.12,0.45,2.24,0.91,3.36,1.37c-0.2-1.3-0.67-2.56-1.35-3.68
						c-0.47,0.54-0.93,1.08-1.4,1.62C618.44,696.06,618.24,696.3,618.04,696.51z"/>
				</g>
				<g>
					<path className="st4" d="M612.42,692.34c-0.44,0.89-0.91,1.76-1.41,2.61c-0.07,0.12-0.15,0.27-0.23,0.42
						c1.54-0.02,3.01,0.46,4.55,0.75c0.38,0.07,0.77,0.17,1.16,0.14c0.96-0.06,1.45-0.93,2.02-1.59c0.35-0.4,0.7-0.81,1.05-1.21
						c-1.12-1.49-2.67-2.67-4.57-3.27c-0.46-0.15-0.95-0.25-1.46-0.31C613.18,690.72,612.82,691.54,612.42,692.34z"/>
				</g>
			</g>
			<g>
				<path className="st4" d="M609.53,688.75c-0.54,0.03-1.17,0.52-1.66,0.49c-0.45-0.03-0.79-1.02-1.16-1.36
					c-0.14-0.13-0.3-0.25-0.49-0.3c-0.26-0.07-0.77,0.09-0.81,0.41c-0.01,0.11,0.06,0.22,0.13,0.31c0.18,0.23,0.53,0.65,0.68,1.03
					c0.02,0.09,0.05,0.19,0.07,0.28c0,0.05,0.01,0.09,0,0.13c-0.05,0.38-0.57,0.49-0.92,0.66c-0.74,0.38-1.2,1.16-1.15,2
					c0.01,0.24,0.05,0.48,0.13,0.65c0,0,4.56-2.23,6.96-2.95C611.31,690.1,610.89,688.68,609.53,688.75z"/>
			</g>
		</g>
	</g>
	<g>
		<g>
			<g>
				<g>
					<path className="st3" d="M539.7,703.58c-0.19,0.16-0.4,0.29-0.63,0.38c-0.1,0.04-0.2,0.07-0.31,0.1c-1.4,2.07-2.77,4.16-4.1,6.27
						c4.16,0.28,8.5-1.71,10.92-5.1C543.79,704.23,541.79,703.65,539.7,703.58z"/>
				</g>
				<g>
					<path className="st3" d="M529.34,702.31c1.51-0.83,1.82-2.22,2.38-3.72c0.2-0.54,0.43-1.06,0.68-1.57c0.13-0.26,0.26-0.52,0.4-0.78
						c0.05-0.08,0.22-0.29,0.21-0.38c-0.01-0.17-0.52-0.14-0.66-0.16c-0.36-0.06-0.72-0.11-1.08-0.17c-0.7-0.11-1.4-0.23-2.11-0.34
						c-1.16-0.19-2.31-0.37-3.47-0.56c-0.69,1.5-0.98,3.21-0.75,5.05c0.17,1.35,0.52,2.7,1.04,3.96
						C527.17,703.28,528.32,702.87,529.34,702.31z"/>
				</g>
				<g>
					<path className="st3" d="M541.42,700.93c-0.27,0.52-0.57,1.16-0.94,1.73c2,0.19,3.89,0.78,5.63,1.76c0.21-0.35,0.4-0.71,0.56-1.09
						c0.68-1.56,0.95-3.21,0.86-4.84c-1.49-0.62-2.98-1.23-4.48-1.82C542.66,698.15,542.13,699.58,541.42,700.93z"/>
				</g>
				<g>
					<path className="st3" d="M537.08,695.74c-0.62-0.12-1.26-0.19-1.89-0.17c-0.29,0.01-0.63,0-0.88,0.17
						c-0.25,0.17-0.38,0.46-0.52,0.72c-0.21,0.38-0.4,0.77-0.58,1.16c-0.35,0.76-0.66,1.55-0.93,2.34c-0.14,0.4-0.29,0.79-0.47,1.16
						c-0.09,0.19-0.2,0.37-0.31,0.54c-0.08,0.12-0.3,0.31-0.35,0.42c-0.18,0.48,1.28,0.7,1.57,0.77c0.59,0.14,1.19,0.25,1.79,0.33
						c1.16,0.14,2.35,0.16,3.52,0c0.45-0.06,0.85-0.27,1.2-0.56c0.6-0.5,1.06-1.23,1.39-1.87c0.61-1.16,1.02-2.42,1.37-3.68
						c0.04-0.15,0.08-0.31,0.12-0.46c-0.43,0.02-0.87-0.01-1.3-0.06C539.54,696.38,538.33,695.97,537.08,695.74z"/>
				</g>
				<g>
					<path className="st3" d="M530.14,703.78c0.03-0.12,0.3-0.76,0.21-0.84c-0.14-0.14-0.48,0.19-0.59,0.25
						c-0.34,0.18-0.69,0.33-1.05,0.47c-0.71,0.26-1.43,0.45-2.15,0.67c-0.08,0.02-0.15,0.04-0.23,0.07
						c0.64,1.32,1.49,2.52,2.54,3.49c0.21-0.62,0.42-1.23,0.62-1.86C529.72,705.28,529.93,704.53,530.14,703.78z"/>
				</g>
				<g>
					<path className="st3" d="M534.79,704.08c-1.23-0.08-2.42-0.28-3.56-0.67c-0.45,1.73-0.98,3.44-1.57,5.12
						c1.13,0.84,2.45,1.44,3.96,1.68c1.26-2.02,2.55-4.01,3.88-5.98C536.57,704.26,535.59,704.13,534.79,704.08z"/>
				</g>
				<g>
					<path className="st3" d="M531.16,694.53c0.41,0.07,0.81,0.13,1.22,0.2c0.82,0.13,0.99,0.29,1.65-0.17c1.3-0.9,2.14-3.42,2.8-4.83
						c0.22-0.48,0.44-0.96,0.64-1.45c-4.26-0.16-9.16,1.97-11.3,5.44c0.64,0.1,1.29,0.21,1.93,0.31
						C529.13,694.2,530.15,694.36,531.16,694.53z"/>
				</g>
				<g>
					<path className="st3" d="M543.61,695.86c1.27,0.51,2.54,1.03,3.81,1.55c-0.23-1.48-0.75-2.9-1.54-4.17
						c-0.53,0.61-1.06,1.22-1.59,1.83C544.06,695.36,543.84,695.63,543.61,695.86z"/>
				</g>
				<g>
					<path className="st3" d="M537.23,691.14c-0.5,1.01-1.03,2-1.6,2.96c-0.08,0.14-0.17,0.3-0.26,0.48c1.75-0.03,3.41,0.53,5.16,0.86
						c0.43,0.08,0.87,0.19,1.32,0.16c1.09-0.07,1.64-1.06,2.29-1.8c0.4-0.46,0.79-0.92,1.19-1.37c-1.27-1.7-3.04-3.03-5.19-3.71
						c-0.53-0.17-1.08-0.28-1.65-0.35C538.09,689.3,537.68,690.23,537.23,691.14z"/>
				</g>
			</g>
			<g>
				<path className="st3" d="M533.95,687.06c-0.61,0.04-1.33,0.59-1.89,0.55c-0.51-0.04-0.9-1.15-1.32-1.55
					c-0.16-0.15-0.34-0.29-0.56-0.34c-0.29-0.08-0.88,0.11-0.92,0.47c-0.02,0.13,0.07,0.25,0.15,0.35c0.21,0.27,0.6,0.73,0.77,1.17
					c0.03,0.11,0.05,0.21,0.08,0.32c0,0.05,0.01,0.1,0,0.15c-0.06,0.43-0.65,0.55-1.04,0.75c-0.84,0.43-1.37,1.32-1.31,2.27
					c0.02,0.28,0.06,0.54,0.14,0.74c0,0,5.18-2.52,7.9-3.34C535.97,688.59,535.5,686.98,533.95,687.06z"/>
			</g>
		</g>
	</g>
	<g>
		<g>
			<g>
				<g>
					<path className="st6" d="M443.1,484.8c-0.33-0.06-0.64-0.15-0.93-0.31c-0.13-0.07-0.25-0.14-0.37-0.23
						c-3.32,0.36-6.64,0.78-9.94,1.26c3.32,4.48,9.1,7.18,14.66,6.71C445.97,489.52,444.83,486.99,443.1,484.8z"/>
				</g>
				<g>
					<path className="st6" d="M435.41,473.13c2.16,0.82,3.84-0.06,5.85-0.8c0.72-0.26,1.45-0.48,2.19-0.67c0.38-0.1,0.76-0.19,1.14-0.27
						c0.12-0.03,0.49-0.03,0.58-0.11c0.17-0.15-0.31-0.65-0.41-0.81c-0.25-0.42-0.51-0.83-0.76-1.25c-0.49-0.81-0.98-1.63-1.48-2.44
						c-0.81-1.34-1.62-2.68-2.44-4.02c-2.12,0.59-4.12,1.78-5.8,3.61c-1.23,1.34-2.3,2.86-3.13,4.49
						C432.54,471.77,433.96,472.58,435.41,473.13z"/>
				</g>
				<g>
					<path className="st6" d="M447.28,484.26c-0.76,0.18-1.68,0.43-2.58,0.54c1.54,2.2,2.58,4.64,3.08,7.27
						c0.54-0.09,1.07-0.22,1.6-0.37c2.18-0.65,4.1-1.81,5.67-3.31c-0.66-2.05-1.33-4.1-2.02-6.14
						C451.19,483.1,449.27,483.8,447.28,484.26z"/>
				</g>
				<g>
					<path className="st6" d="M448.82,475.33c-0.42-0.74-0.89-1.45-1.47-2.08c-0.26-0.29-0.54-0.64-0.93-0.75
						c-0.39-0.11-0.8,0.01-1.19,0.09c-0.57,0.12-1.13,0.26-1.69,0.42c-1.08,0.3-2.15,0.67-3.19,1.08c-0.52,0.2-1.05,0.39-1.59,0.52
						c-0.27,0.07-0.55,0.12-0.82,0.16c-0.19,0.02-0.58-0.04-0.73,0.01c-0.65,0.23,0.4,1.9,0.58,2.26c0.36,0.73,0.77,1.43,1.22,2.11
						c0.86,1.31,1.87,2.54,3.05,3.59c0.45,0.4,1.01,0.63,1.61,0.73c1.03,0.18,2.17,0.01,3.11-0.2c1.71-0.39,3.36-1.06,4.94-1.79
						c0.19-0.09,0.39-0.18,0.58-0.28c-0.4-0.42-0.75-0.89-1.06-1.37C450.29,478.39,449.66,476.8,448.82,475.33z"/>
				</g>
				<g>
					<path className="st6" d="M434.6,475.22c0.15-0.07,1.03-0.35,1.05-0.51c0.02-0.26-0.61-0.32-0.77-0.38
						c-0.48-0.19-0.94-0.42-1.39-0.67c-0.88-0.49-1.7-1.07-2.55-1.62c-0.09-0.06-0.18-0.12-0.27-0.17c-0.79,1.8-1.28,3.7-1.36,5.61
						c0.81-0.32,1.62-0.64,2.42-0.98C432.71,476.09,433.66,475.67,434.6,475.22z"/>
				</g>
				<g>
					<path className="st6" d="M438.33,480.22c-0.98-1.32-1.81-2.71-2.41-4.21c-2.16,1.04-4.35,1.98-6.58,2.83
						c0.12,1.88,0.66,3.74,1.71,5.49c3.15-0.46,6.3-0.87,9.46-1.23C439.69,482.2,438.97,481.08,438.33,480.22z"/>
				</g>
				<g>
					<path className="st6" d="M444.92,468.25c0.29,0.47,0.57,0.94,0.86,1.42c0.58,0.95,0.56,1.26,1.6,1.54
						c2.05,0.55,5.34-0.78,7.34-1.33c0.68-0.19,1.36-0.39,2.03-0.6c-3.53-4.47-9.94-7.63-15.34-6.8c0.45,0.75,0.91,1.49,1.36,2.24
						C443.49,465.89,444.21,467.07,444.92,468.25z"/>
				</g>
				<g>
					<path className="st6" d="M454.34,482.09c0.58,1.74,1.16,3.48,1.72,5.23c1.31-1.51,2.3-3.28,2.92-5.18
						c-1.08-0.01-2.16-0.02-3.24-0.03C455.25,482.11,454.78,482.12,454.34,482.09z"/>
				</g>
				<g>
					<path className="st6" d="M453.63,471.5c-1.46,0.37-2.93,0.68-4.41,0.94c-0.21,0.04-0.46,0.09-0.71,0.15c1.54,1.76,2.42,3.94,3.6,6
						c0.29,0.51,0.56,1.06,0.98,1.48c1.02,1.05,2.5,0.76,3.82,0.77c0.81,0.01,1.62,0.01,2.43,0.02c0.63-2.76,0.46-5.72-0.72-8.5
						c-0.29-0.68-0.65-1.35-1.07-1.99C456.25,470.78,454.95,471.16,453.63,471.5z"/>
				</g>
			</g>
			<g>
				<path className="st6" d="M454.94,464.62c-0.56-0.59-1.75-0.85-2.2-1.44c-0.4-0.55,0.4-1.91,0.44-2.68c0.01-0.29-0.01-0.6-0.13-0.86
					c-0.17-0.36-0.87-0.8-1.28-0.53c-0.15,0.1-0.19,0.28-0.23,0.46c-0.09,0.44-0.23,1.25-0.52,1.8c-0.08,0.12-0.17,0.24-0.25,0.36
					c-0.05,0.05-0.1,0.1-0.15,0.13c-0.49,0.31-1.12-0.18-1.67-0.41c-1.17-0.49-2.53-0.25-3.44,0.63c-0.27,0.26-0.5,0.53-0.63,0.78
					c0,0,7.06,3.09,10.25,5.16C455.14,468,456.37,466.12,454.94,464.62z"/>
			</g>
		</g>
	</g>
	
		<ellipse transform="matrix(0.1602 -0.9871 0.9871 0.1602 -259.3372 964.2801)" className="st4" cx="437.02" cy="634.55" rx="28.46" ry="28.46"/>
	<path className="st9" d="M464.54,633.6h-1.7l0.98-0.98c0.37-0.37,0.37-0.97,0-1.34c-0.37-0.37-0.97-0.37-1.34,0l-2.32,2.32h-5.46
		l1.18-1.18c0.37-0.37,0.37-0.97,0-1.34s-0.97-0.37-1.34,0l-2.52,2.52h-4.35l5.41-5.41c0.37-0.37,0.37-0.97,0-1.34
		c-0.37-0.37-0.97-0.37-1.34,0l-6.74,6.74h-1.45l-1.56-2.7l6.3-6.3h3.56c0.52,0,0.94-0.42,0.94-0.94c0-0.52-0.42-0.94-0.94-0.94
		h-1.67l3.86-3.86h3.27c0.52,0,0.94-0.42,0.94-0.94c0-0.52-0.42-0.94-0.94-0.94h-1.39l1.2-1.2c0.37-0.37,0.37-0.97,0-1.34
		c-0.37-0.37-0.97-0.37-1.34,0l-1.2,1.2v-1.39c0-0.52-0.42-0.94-0.94-0.94c-0.52,0-0.94,0.42-0.94,0.94v3.27l-3.86,3.86v-1.67
		c0-0.52-0.42-0.94-0.94-0.94c-0.52,0-0.94,0.42-0.94,0.94v3.56l-5.95,5.95l-0.46-0.8h-2.6v-1.86l6.74-6.74
		c0.37-0.37,0.37-0.97,0-1.34c-0.37-0.37-0.97-0.37-1.34,0l-5.41,5.41v-4.35l2.52-2.52c0.37-0.37,0.37-0.97,0-1.34
		c-0.37-0.37-0.97-0.37-1.34,0l-1.18,1.18v-5.46l2.32-2.32c0.37-0.37,0.37-0.97,0-1.34c-0.37-0.37-0.97-0.37-1.34,0l-0.98,0.98v-1.7
		c0-0.52-0.42-0.94-0.94-0.94s-0.94,0.42-0.94,0.94v1.7l-0.98-0.98c-0.37-0.37-0.97-0.37-1.34,0c-0.37,0.37-0.37,0.97,0,1.34
		l2.32,2.32v5.46l-1.18-1.18c-0.37-0.37-0.97-0.37-1.34,0c-0.37,0.37-0.37,0.97,0,1.34l2.52,2.52v4.35l-5.41-5.41
		c-0.37-0.37-0.97-0.37-1.34,0c-0.37,0.37-0.37,0.97,0,1.34l6.74,6.74v1.86h-2.6l-0.46,0.8l-5.95-5.95v-3.56
		c0-0.52-0.42-0.94-0.94-0.94c-0.52,0-0.94,0.42-0.94,0.94v1.67l-3.86-3.86v-3.27c0-0.52-0.42-0.94-0.94-0.94
		c-0.52,0-0.94,0.42-0.94,0.94v1.39l-1.2-1.2c-0.37-0.37-0.97-0.37-1.34,0c-0.37,0.37-0.37,0.97,0,1.34l1.2,1.2h-1.39
		c-0.52,0-0.94,0.42-0.94,0.94c0,0.52,0.42,0.94,0.94,0.94h3.27l3.86,3.86h-1.67c-0.52,0-0.94,0.42-0.94,0.94
		c0,0.52,0.42,0.94,0.94,0.94h3.56l6.3,6.3l-1.56,2.7h-1.45l-6.74-6.74c-0.37-0.37-0.97-0.37-1.34,0c-0.37,0.37-0.37,0.97,0,1.34
		l5.41,5.41h-4.35l-2.52-2.52c-0.37-0.37-0.97-0.37-1.34,0c-0.37,0.37-0.37,0.97,0,1.34l1.18,1.18h-5.46l-2.32-2.32
		c-0.37-0.37-0.97-0.37-1.34,0c-0.37,0.37-0.37,0.97,0,1.34l0.98,0.98h-1.7c-0.52,0-0.94,0.42-0.94,0.94c0,0.52,0.42,0.94,0.94,0.94
		h1.7l-0.98,0.98c-0.37,0.37-0.37,0.97,0,1.34c0.18,0.18,0.43,0.28,0.67,0.28c0.24,0,0.48-0.09,0.67-0.28l2.32-2.32h5.46l-1.18,1.18
		c-0.37,0.37-0.37,0.97,0,1.34c0.18,0.18,0.43,0.28,0.67,0.28c0.24,0,0.48-0.09,0.67-0.28l2.52-2.52h4.35l-5.41,5.41
		c-0.37,0.37-0.37,0.97,0,1.34c0.18,0.18,0.43,0.28,0.67,0.28c0.24,0,0.48-0.09,0.67-0.28l6.74-6.74h1.45l1.56,2.7l-6.3,6.3h-3.56
		c-0.52,0-0.94,0.42-0.94,0.94c0,0.52,0.42,0.94,0.94,0.94h1.67l-3.86,3.86h-3.27c-0.52,0-0.94,0.42-0.94,0.94
		c0,0.52,0.42,0.94,0.94,0.94h1.39l-1.2,1.2c-0.37,0.37-0.37,0.97,0,1.34c0.18,0.18,0.43,0.28,0.67,0.28c0.24,0,0.48-0.09,0.67-0.28
		l1.2-1.2v1.39c0,0.52,0.42,0.94,0.94,0.94c0.52,0,0.94-0.42,0.94-0.94v-3.27l3.86-3.86v1.67c0,0.52,0.42,0.94,0.94,0.94
		c0.52,0,0.94-0.42,0.94-0.94v-3.56l5.95-5.95l0.46,0.8h2.6v1.86l-6.74,6.74c-0.37,0.37-0.37,0.97,0,1.34
		c0.37,0.37,0.97,0.37,1.34,0l5.41-5.41v4.35l-2.52,2.52c-0.37,0.37-0.37,0.97,0,1.34c0.37,0.37,0.97,0.37,1.34,0l1.18-1.18v5.46
		l-2.32,2.32c-0.37,0.37-0.37,0.97,0,1.34c0.37,0.37,0.97,0.37,1.34,0l0.98-0.98v1.7c0,0.52,0.42,0.94,0.94,0.94
		s0.94-0.42,0.94-0.94v-1.7l0.98,0.98c0.18,0.18,0.43,0.28,0.67,0.28c0.24,0,0.48-0.09,0.67-0.28c0.37-0.37,0.37-0.97,0-1.34
		l-2.32-2.32v-5.46l1.18,1.18c0.18,0.18,0.43,0.28,0.67,0.28c0.24,0,0.48-0.09,0.67-0.28c0.37-0.37,0.37-0.97,0-1.34l-2.52-2.52
		v-4.35l5.41,5.41c0.18,0.18,0.43,0.28,0.67,0.28s0.48-0.09,0.67-0.28c0.37-0.37,0.37-0.97,0-1.34l-6.74-6.74v-1.86h2.6l0.46-0.8
		l5.95,5.95v3.56c0,0.52,0.42,0.94,0.94,0.94c0.52,0,0.94-0.42,0.94-0.94v-1.67l3.86,3.86v3.27c0,0.52,0.42,0.94,0.94,0.94
		c0.52,0,0.94-0.42,0.94-0.94v-1.39l1.2,1.2c0.18,0.18,0.43,0.28,0.67,0.28c0.24,0,0.48-0.09,0.67-0.28c0.37-0.37,0.37-0.97,0-1.34
		l-1.2-1.2h1.39c0.52,0,0.94-0.42,0.94-0.94c0-0.52-0.42-0.94-0.94-0.94h-3.27l-3.86-3.86h1.67c0.52,0,0.94-0.42,0.94-0.94
		c0-0.52-0.42-0.94-0.94-0.94h-3.56l-6.3-6.3l1.56-2.7h1.45l6.74,6.74c0.18,0.18,0.43,0.28,0.67,0.28c0.24,0,0.48-0.09,0.67-0.28
		c0.37-0.37,0.37-0.97,0-1.34l-5.41-5.41h4.35l2.52,2.52c0.18,0.18,0.43,0.28,0.67,0.28c0.24,0,0.48-0.09,0.67-0.28
		c0.37-0.37,0.37-0.97,0-1.34l-1.18-1.18h5.46l2.32,2.32c0.18,0.18,0.43,0.28,0.67,0.28c0.24,0,0.48-0.09,0.67-0.28
		c0.37-0.37,0.37-0.97,0-1.34l-0.98-0.98h1.7c0.52,0,0.94-0.42,0.94-0.94C465.48,634.03,465.06,633.6,464.54,633.6z M439.47,638.79
		h-4.9l-2.45-4.24l2.45-4.24h4.9l2.45,4.24L439.47,638.79z"/>
	<circle className="st6" cx="581.9" cy="583.18" r="16.35"/>
	<path className="st9" d="M597.71,582.64h-0.98l0.56-0.56c0.21-0.21,0.21-0.56,0-0.77c-0.21-0.21-0.56-0.21-0.77,0l-1.33,1.33h-3.14
		l0.68-0.68c0.21-0.21,0.21-0.56,0-0.77c-0.21-0.21-0.56-0.21-0.77,0l-1.45,1.45h-2.5l3.11-3.11c0.21-0.21,0.21-0.56,0-0.77
		c-0.21-0.21-0.56-0.21-0.77,0l-3.87,3.87h-0.84l-0.89-1.55l3.62-3.62h2.05c0.3,0,0.54-0.24,0.54-0.54c0-0.3-0.24-0.54-0.54-0.54
		h-0.96l2.22-2.22h1.88c0.3,0,0.54-0.24,0.54-0.54c0-0.3-0.24-0.54-0.54-0.54h-0.8l0.69-0.69c0.21-0.21,0.21-0.56,0-0.77
		c-0.21-0.21-0.56-0.21-0.77,0l-0.69,0.69v-0.8c0-0.3-0.24-0.54-0.54-0.54s-0.54,0.24-0.54,0.54v1.88l-2.22,2.22v-0.96
		c0-0.3-0.24-0.54-0.54-0.54s-0.54,0.24-0.54,0.54v2.05l-3.42,3.42l-0.26-0.46h-1.49v-1.07l3.87-3.87c0.21-0.21,0.21-0.56,0-0.77
		c-0.21-0.21-0.56-0.21-0.77,0l-3.11,3.11v-2.5l1.45-1.45c0.21-0.21,0.21-0.56,0-0.77c-0.21-0.21-0.56-0.21-0.77,0l-0.68,0.68v-3.14
		l1.33-1.33c0.21-0.21,0.21-0.56,0-0.77c-0.21-0.21-0.56-0.21-0.77,0l-0.56,0.56v-0.98c0-0.3-0.24-0.54-0.54-0.54
		c-0.3,0-0.54,0.24-0.54,0.54v0.98l-0.56-0.56c-0.21-0.21-0.56-0.21-0.77,0c-0.21,0.21-0.21,0.56,0,0.77l1.33,1.33v3.14l-0.68-0.68
		c-0.21-0.21-0.56-0.21-0.77,0c-0.21,0.21-0.21,0.56,0,0.77l1.45,1.45v2.5l-3.11-3.11c-0.21-0.21-0.56-0.21-0.77,0
		c-0.21,0.21-0.21,0.56,0,0.77l3.87,3.87v1.07h-1.49l-0.26,0.46l-3.42-3.42v-2.05c0-0.3-0.24-0.54-0.54-0.54s-0.54,0.24-0.54,0.54
		v0.96l-2.22-2.22v-1.88c0-0.3-0.24-0.54-0.54-0.54s-0.54,0.24-0.54,0.54v0.8l-0.69-0.69c-0.21-0.21-0.56-0.21-0.77,0
		c-0.21,0.21-0.21,0.56,0,0.77l0.69,0.69h-0.8c-0.3,0-0.54,0.24-0.54,0.54c0,0.3,0.24,0.54,0.54,0.54h1.88l2.22,2.22h-0.96
		c-0.3,0-0.54,0.24-0.54,0.54c0,0.3,0.24,0.54,0.54,0.54h2.05l3.62,3.62l-0.9,1.55h-0.84l-3.87-3.87c-0.21-0.21-0.56-0.21-0.77,0
		c-0.21,0.21-0.21,0.56,0,0.77l3.11,3.11h-2.5l-1.45-1.45c-0.21-0.21-0.56-0.21-0.77,0c-0.21,0.21-0.21,0.56,0,0.77l0.68,0.68h-3.14
		l-1.33-1.33c-0.21-0.21-0.56-0.21-0.77,0c-0.21,0.21-0.21,0.56,0,0.77l0.56,0.56h-0.98c-0.3,0-0.54,0.24-0.54,0.54
		s0.24,0.54,0.54,0.54h0.98l-0.56,0.56c-0.21,0.21-0.21,0.56,0,0.77c0.11,0.11,0.24,0.16,0.38,0.16c0.14,0,0.28-0.05,0.38-0.16
		l1.33-1.33h3.14l-0.68,0.68c-0.21,0.21-0.21,0.56,0,0.77c0.11,0.11,0.24,0.16,0.38,0.16c0.14,0,0.28-0.05,0.38-0.16l1.45-1.45h2.5
		l-3.11,3.11c-0.21,0.21-0.21,0.56,0,0.77c0.11,0.11,0.24,0.16,0.38,0.16s0.28-0.05,0.38-0.16l3.87-3.87h0.84l0.9,1.55l-3.62,3.62
		h-2.05c-0.3,0-0.54,0.24-0.54,0.54s0.24,0.54,0.54,0.54h0.96l-2.22,2.22h-1.88c-0.3,0-0.54,0.24-0.54,0.54
		c0,0.3,0.24,0.54,0.54,0.54h0.8l-0.69,0.69c-0.21,0.21-0.21,0.56,0,0.77c0.11,0.11,0.24,0.16,0.38,0.16c0.14,0,0.28-0.05,0.38-0.16
		l0.69-0.69v0.8c0,0.3,0.24,0.54,0.54,0.54s0.54-0.24,0.54-0.54v-1.88l2.22-2.22v0.96c0,0.3,0.24,0.54,0.54,0.54
		s0.54-0.24,0.54-0.54v-2.05l3.42-3.42l0.26,0.46h1.49v1.07l-3.87,3.87c-0.21,0.21-0.21,0.56,0,0.77c0.21,0.21,0.56,0.21,0.77,0
		l3.11-3.11v2.5l-1.45,1.45c-0.21,0.21-0.21,0.56,0,0.77c0.21,0.21,0.56,0.21,0.77,0l0.68-0.68v3.14l-1.33,1.33
		c-0.21,0.21-0.21,0.56,0,0.77c0.21,0.21,0.56,0.21,0.77,0l0.56-0.56v0.98c0,0.3,0.24,0.54,0.54,0.54c0.3,0,0.54-0.24,0.54-0.54
		v-0.98l0.56,0.56c0.11,0.11,0.24,0.16,0.38,0.16c0.14,0,0.28-0.05,0.38-0.16c0.21-0.21,0.21-0.56,0-0.77l-1.33-1.33v-3.14
		l0.68,0.68c0.11,0.11,0.24,0.16,0.38,0.16c0.14,0,0.28-0.05,0.38-0.16c0.21-0.21,0.21-0.56,0-0.77l-1.45-1.45v-2.5l3.11,3.11
		c0.11,0.11,0.24,0.16,0.38,0.16s0.28-0.05,0.38-0.16c0.21-0.21,0.21-0.56,0-0.77l-3.87-3.87v-1.07h1.49l0.26-0.46l3.42,3.42v2.05
		c0,0.3,0.24,0.54,0.54,0.54s0.54-0.24,0.54-0.54v-0.96l2.22,2.22v1.88c0,0.3,0.24,0.54,0.54,0.54s0.54-0.24,0.54-0.54v-0.8
		l0.69,0.69c0.11,0.11,0.24,0.16,0.38,0.16s0.28-0.05,0.38-0.16c0.21-0.21,0.21-0.56,0-0.77l-0.69-0.69h0.8
		c0.3,0,0.54-0.24,0.54-0.54c0-0.3-0.24-0.54-0.54-0.54h-1.88l-2.22-2.22h0.96c0.3,0,0.54-0.24,0.54-0.54s-0.24-0.54-0.54-0.54
		h-2.05l-3.62-3.62l0.89-1.55h0.84l3.87,3.87c0.11,0.11,0.24,0.16,0.38,0.16s0.28-0.05,0.38-0.16c0.21-0.21,0.21-0.56,0-0.77
		l-3.11-3.11h2.5l1.45,1.45c0.11,0.11,0.24,0.16,0.38,0.16c0.14,0,0.28-0.05,0.38-0.16c0.21-0.21,0.21-0.56,0-0.77l-0.68-0.68h3.14
		l1.33,1.33c0.11,0.11,0.24,0.16,0.38,0.16s0.28-0.05,0.38-0.16c0.21-0.21,0.21-0.56,0-0.77l-0.56-0.56h0.98
		c0.3,0,0.54-0.24,0.54-0.54S598.01,582.64,597.71,582.64z M583.31,585.62h-2.82l-1.41-2.44l1.41-2.44h2.82l1.41,2.44L583.31,585.62
		z"/>
	<circle className="st8" cx="542.98" cy="424.31" r="12.78"/>
	<path className="st9" d="M555.33,424.11h-0.76l0.44-0.44c0.17-0.17,0.17-0.43,0-0.6c-0.17-0.17-0.43-0.17-0.6,0l-1.04,1.04h-2.45
		l0.53-0.53c0.17-0.17,0.17-0.43,0-0.6c-0.17-0.17-0.43-0.17-0.6,0l-1.13,1.13h-1.95l2.43-2.43c0.17-0.17,0.17-0.43,0-0.6
		c-0.17-0.17-0.43-0.17-0.6,0l-3.03,3.03h-0.65l-0.7-1.21l2.83-2.83h1.6c0.23,0,0.42-0.19,0.42-0.42c0-0.23-0.19-0.42-0.42-0.42
		h-0.75l1.73-1.73h1.47c0.23,0,0.42-0.19,0.42-0.42c0-0.23-0.19-0.42-0.42-0.42h-0.62l0.54-0.54c0.17-0.17,0.17-0.43,0-0.6
		c-0.17-0.17-0.43-0.17-0.6,0l-0.54,0.54v-0.62c0-0.23-0.19-0.42-0.42-0.42c-0.23,0-0.42,0.19-0.42,0.42v1.47l-1.73,1.73v-0.75
		c0-0.23-0.19-0.42-0.42-0.42c-0.23,0-0.42,0.19-0.42,0.42v1.6l-2.67,2.67l-0.21-0.36h-1.17v-0.83l3.03-3.03
		c0.17-0.17,0.17-0.43,0-0.6c-0.17-0.17-0.43-0.17-0.6,0l-2.43,2.43v-1.95l1.13-1.13c0.17-0.17,0.17-0.43,0-0.6
		c-0.17-0.17-0.43-0.17-0.6,0l-0.53,0.53v-2.45l1.04-1.04c0.17-0.17,0.17-0.43,0-0.6c-0.17-0.17-0.43-0.17-0.6,0l-0.44,0.44v-0.76
		c0-0.23-0.19-0.42-0.42-0.42c-0.23,0-0.42,0.19-0.42,0.42v0.76l-0.44-0.44c-0.17-0.17-0.43-0.17-0.6,0c-0.17,0.17-0.17,0.43,0,0.6
		l1.04,1.04v2.45l-0.53-0.53c-0.17-0.17-0.43-0.17-0.6,0c-0.17,0.17-0.17,0.43,0,0.6l1.13,1.13v1.95l-2.43-2.43
		c-0.17-0.17-0.43-0.17-0.6,0c-0.17,0.17-0.17,0.43,0,0.6l3.03,3.03v0.83h-1.17l-0.21,0.36l-2.67-2.67v-1.6
		c0-0.23-0.19-0.42-0.42-0.42c-0.23,0-0.42,0.19-0.42,0.42v0.75l-1.73-1.73v-1.47c0-0.23-0.19-0.42-0.42-0.42
		c-0.23,0-0.42,0.19-0.42,0.42v0.62l-0.54-0.54c-0.17-0.17-0.43-0.17-0.6,0c-0.17,0.17-0.17,0.43,0,0.6l0.54,0.54h-0.62
		c-0.23,0-0.42,0.19-0.42,0.42c0,0.23,0.19,0.42,0.42,0.42h1.47l1.73,1.73h-0.75c-0.23,0-0.42,0.19-0.42,0.42
		c0,0.23,0.19,0.42,0.42,0.42h1.6l2.83,2.83l-0.7,1.21h-0.65l-3.03-3.03c-0.17-0.17-0.43-0.17-0.6,0c-0.17,0.17-0.17,0.43,0,0.6
		l2.43,2.43h-1.95l-1.13-1.13c-0.17-0.17-0.43-0.17-0.6,0c-0.17,0.17-0.17,0.43,0,0.6l0.53,0.53h-2.45l-1.04-1.04
		c-0.17-0.17-0.43-0.17-0.6,0c-0.17,0.17-0.17,0.43,0,0.6l0.44,0.44h-0.76c-0.23,0-0.42,0.19-0.42,0.42c0,0.23,0.19,0.42,0.42,0.42
		h0.76l-0.44,0.44c-0.17,0.17-0.17,0.43,0,0.6c0.08,0.08,0.19,0.12,0.3,0.12c0.11,0,0.22-0.04,0.3-0.12l1.04-1.04h2.45l-0.53,0.53
		c-0.17,0.17-0.17,0.43,0,0.6c0.08,0.08,0.19,0.12,0.3,0.12c0.11,0,0.22-0.04,0.3-0.12l1.13-1.13h1.95l-2.43,2.43
		c-0.17,0.17-0.17,0.43,0,0.6c0.08,0.08,0.19,0.12,0.3,0.12c0.11,0,0.22-0.04,0.3-0.12l3.03-3.03h0.65l0.7,1.21l-2.83,2.83h-1.6
		c-0.23,0-0.42,0.19-0.42,0.42c0,0.23,0.19,0.42,0.42,0.42h0.75l-1.73,1.73h-1.47c-0.23,0-0.42,0.19-0.42,0.42
		c0,0.23,0.19,0.42,0.42,0.42h0.62l-0.54,0.54c-0.17,0.17-0.17,0.43,0,0.6c0.08,0.08,0.19,0.12,0.3,0.12c0.11,0,0.22-0.04,0.3-0.12
		l0.54-0.54v0.62c0,0.23,0.19,0.42,0.42,0.42c0.23,0,0.42-0.19,0.42-0.42v-1.47l1.73-1.73v0.75c0,0.23,0.19,0.42,0.42,0.42
		c0.23,0,0.42-0.19,0.42-0.42v-1.6l2.67-2.67l0.21,0.36h1.17v0.83l-3.03,3.03c-0.17,0.17-0.17,0.43,0,0.6c0.17,0.17,0.43,0.17,0.6,0
		l2.43-2.43v1.95l-1.13,1.13c-0.17,0.17-0.17,0.43,0,0.6c0.17,0.17,0.43,0.17,0.6,0l0.53-0.53v2.45l-1.04,1.04
		c-0.17,0.17-0.17,0.43,0,0.6c0.17,0.17,0.43,0.17,0.6,0l0.44-0.44v0.76c0,0.23,0.19,0.42,0.42,0.42c0.23,0,0.42-0.19,0.42-0.42
		v-0.76l0.44,0.44c0.08,0.08,0.19,0.12,0.3,0.12s0.22-0.04,0.3-0.12c0.17-0.17,0.17-0.43,0-0.6l-1.04-1.04v-2.45l0.53,0.53
		c0.08,0.08,0.19,0.12,0.3,0.12s0.22-0.04,0.3-0.12c0.17-0.17,0.17-0.43,0-0.6l-1.13-1.13v-1.95l2.43,2.43
		c0.08,0.08,0.19,0.12,0.3,0.12c0.11,0,0.22-0.04,0.3-0.12c0.17-0.17,0.17-0.43,0-0.6l-3.03-3.03v-0.83h1.17l0.21-0.36l2.67,2.67
		v1.6c0,0.23,0.19,0.42,0.42,0.42c0.23,0,0.42-0.19,0.42-0.42v-0.75l1.73,1.73v1.47c0,0.23,0.19,0.42,0.42,0.42
		c0.23,0,0.42-0.19,0.42-0.42v-0.62l0.54,0.54c0.08,0.08,0.19,0.12,0.3,0.12c0.11,0,0.22-0.04,0.3-0.12c0.17-0.17,0.17-0.43,0-0.6
		l-0.54-0.54h0.62c0.23,0,0.42-0.19,0.42-0.42c0-0.23-0.19-0.42-0.42-0.42h-1.47l-1.73-1.73h0.75c0.23,0,0.42-0.19,0.42-0.42
		c0-0.23-0.19-0.42-0.42-0.42h-1.6l-2.83-2.83l0.7-1.21h0.65l3.03,3.03c0.08,0.08,0.19,0.12,0.3,0.12s0.22-0.04,0.3-0.12
		c0.17-0.17,0.17-0.43,0-0.6l-2.43-2.43h1.95l1.13,1.13c0.08,0.08,0.19,0.12,0.3,0.12c0.11,0,0.22-0.04,0.3-0.12
		c0.17-0.17,0.17-0.43,0-0.6l-0.53-0.53h2.45l1.04,1.04c0.08,0.08,0.19,0.12,0.3,0.12s0.22-0.04,0.3-0.12c0.17-0.17,0.17-0.43,0-0.6
		l-0.44-0.44h0.76c0.23,0,0.42-0.19,0.42-0.42C555.75,424.3,555.56,424.11,555.33,424.11z M544.08,426.43h-2.2l-1.1-1.9l1.1-1.9h2.2
		l1.1,1.9L544.08,426.43z"/>
	<path className="st7" d="M512,449.94c0,0,15.2-6.95,19.03-9.7c3.83-2.75,0.53-10.93-4.89-7C520.71,437.17,512,449.94,512,449.94z"/>
	<g>
		<path className="st4" d="M519.58,621.12l1.53-1.39c1.06-0.96,1.14-2.59,0.18-3.65c-0.96-1.06-2.59-1.14-3.65-0.18l-1.54,1.39
			c-6.02-4.81-14.81-4.71-20.71,0.63c-6.56,5.93-7.07,16.06-1.14,22.62c5.93,6.56,16.06,7.07,22.62,1.14
			C522.78,636.33,523.76,627.6,519.58,621.12z"/>
		<polygon className="st9" points="512.93,637.46 513.08,637.32 512.06,636.2 515.2,637.37 515.27,637.18 511.76,635.86 511.07,635.09 
			514.2,636.27 514.27,636.07 510.76,634.76 510.06,633.98 513.2,635.16 513.27,634.96 509.76,633.65 506.38,629.91 511.42,630.16 
			514.65,632.05 514.76,631.87 511.86,630.18 512.91,630.24 516.15,632.12 516.25,631.94 513.36,630.26 514.39,630.31 517.63,632.2 
			517.74,632.02 514.84,630.33 516.47,630.42 516.48,630.21 514.85,630.13 517.9,628.74 517.81,628.55 514.4,630.1 513.37,630.05 
			516.42,628.67 516.33,628.48 512.92,630.03 511.88,629.98 514.92,628.59 514.84,628.4 511.43,629.95 506.39,629.7 510.13,626.32 
			513.75,625.36 513.7,625.16 510.46,626.02 511.24,625.31 514.86,624.36 514.81,624.16 511.57,625.01 512.34,624.32 515.97,623.36 
			515.91,623.16 512.68,624.02 513.8,622.99 513.67,622.84 512.54,623.86 513.71,620.73 513.52,620.65 512.2,624.16 511.43,624.86 
			512.61,621.72 512.41,621.65 511.1,625.16 510.32,625.86 511.5,622.73 511.31,622.65 509.99,626.16 506.25,629.55 506.5,624.51 
			508.39,621.27 508.21,621.17 506.53,624.06 506.58,623.02 508.46,619.78 508.29,619.67 506.6,622.57 506.65,621.53 508.54,618.29 
			508.36,618.19 506.68,621.08 506.76,619.46 506.55,619.45 506.47,621.07 505.08,618.02 504.89,618.11 506.45,621.52 
			506.39,622.56 505.01,619.51 504.82,619.59 506.37,623.01 506.32,624.05 504.93,621 504.74,621.09 506.3,624.5 506.04,629.54 
			502.66,625.8 501.7,622.17 501.5,622.22 502.36,625.46 501.66,624.69 500.7,621.06 500.5,621.11 501.35,624.35 500.66,623.58 
			499.7,619.96 499.5,620.01 500.36,623.25 499.27,622.04 499.11,622.18 500.2,623.39 497.07,622.21 497,622.41 500.51,623.72 
			501.2,624.49 498.07,623.32 497.99,623.51 501.5,624.82 502.2,625.6 499.07,624.43 499,624.62 502.51,625.93 505.89,629.68 
			500.85,629.42 497.61,627.54 497.51,627.71 500.4,629.4 499.36,629.35 496.12,627.46 496.01,627.64 498.91,629.32 497.87,629.27 
			494.63,627.39 494.53,627.56 497.42,629.25 495.9,629.17 495.89,629.38 497.41,629.46 494.37,630.84 494.45,631.03 497.86,629.48 
			498.9,629.53 495.85,630.92 495.94,631.11 499.35,629.55 500.39,629.61 497.34,630.99 497.43,631.18 500.84,629.63 505.88,629.88 
			502.14,633.27 498.51,634.22 498.57,634.42 501.8,633.57 501.03,634.27 497.4,635.22 497.46,635.42 500.69,634.57 499.93,635.27 
			496.3,636.22 496.35,636.42 499.59,635.57 498.39,636.66 498.52,636.81 499.73,635.72 498.56,638.86 498.75,638.93 500.06,635.42 
			500.83,634.72 499.66,637.86 499.85,637.93 501.17,634.42 501.94,633.72 500.77,636.86 500.96,636.93 502.28,633.42 
			506.02,630.04 505.76,635.07 503.88,638.31 504.06,638.42 505.74,635.52 505.69,636.57 503.8,639.81 503.98,639.91 505.67,637.02 
			505.61,638.05 503.73,641.29 503.91,641.39 505.59,638.5 505.51,640.02 505.72,640.03 505.8,638.51 507.18,641.56 507.37,641.47 
			505.82,638.06 505.87,637.03 507.26,640.08 507.45,639.99 505.9,636.58 505.95,635.53 507.33,638.58 507.52,638.5 505.97,635.08 
			506.22,630.05 509.61,633.79 510.56,637.41 510.76,637.36 509.91,634.12 510.61,634.9 511.57,638.52 511.77,638.47 510.91,635.23 
			511.61,636 512.56,639.62 512.76,639.57 511.91,636.33 		"/>
	</g>
	<g>
		<path className="st3" d="M621.09,721.52l2.59-2.34c1.79-1.61,1.92-4.37,0.31-6.16c-1.61-1.79-4.37-1.92-6.16-0.31l-2.59,2.34
			c-10.15-8.11-24.95-7.94-34.91,1.06c-11.05,10-11.91,27.06-1.92,38.11c10,11.05,27.06,11.91,38.11,1.92
			C626.49,747.14,628.15,732.43,621.09,721.52z"/>
		<polygon className="st9" points="609.89,749.05 610.15,748.82 608.43,746.92 613.71,748.89 613.84,748.57 607.92,746.35 
			606.75,745.06 612.03,747.04 612.16,746.71 606.24,744.49 605.06,743.19 610.34,745.17 610.47,744.84 604.55,742.62 
			598.85,736.32 607.34,736.75 612.8,739.93 612.97,739.63 608.1,736.78 609.86,736.87 615.32,740.05 615.49,739.75 610.62,736.91 
			612.36,737 617.82,740.18 617.99,739.88 613.12,737.04 615.85,737.18 615.87,736.83 613.13,736.69 618.27,734.35 618.12,734.03 
			612.38,736.65 610.63,736.56 615.77,734.23 615.62,733.91 609.88,736.53 608.12,736.44 613.25,734.1 613.11,733.78 607.36,736.4 
			598.87,735.97 605.17,730.27 611.28,728.66 611.19,728.32 605.74,729.76 607.04,728.58 613.15,726.97 613.06,726.63 
			607.61,728.07 608.9,726.9 615.01,725.29 614.92,724.95 609.46,726.39 611.37,724.67 611.13,724.41 609.23,726.13 611.21,720.85 
			610.88,720.73 608.67,726.64 607.37,727.81 609.35,722.53 609.02,722.41 606.81,728.32 605.5,729.5 607.48,724.22 607.15,724.1 
			604.94,730.01 598.63,735.71 599.06,727.22 602.24,721.77 601.94,721.59 599.1,726.46 599.19,724.7 602.37,719.25 602.07,719.07 
			599.23,723.95 599.31,722.2 602.49,716.75 602.19,716.57 599.35,721.45 599.49,718.71 599.14,718.69 599,721.43 596.67,716.29 
			596.35,716.44 598.97,722.19 598.88,723.93 596.54,718.79 596.22,718.94 598.84,724.69 598.75,726.45 596.41,721.31 596.1,721.46 
			598.71,727.21 598.29,735.69 592.58,729.39 590.97,723.28 590.64,723.37 592.07,728.83 590.89,727.52 589.28,721.41 588.95,721.5 
			590.38,726.96 589.21,725.66 587.6,719.55 587.27,719.64 588.7,725.1 586.87,723.07 586.61,723.3 588.45,725.33 583.16,723.35 
			583.04,723.68 588.95,725.9 590.12,727.19 584.84,725.21 584.72,725.54 590.63,727.75 591.82,729.06 586.53,727.08 586.41,727.41 
			592.33,729.62 598.03,735.93 589.54,735.5 584.08,732.32 583.9,732.62 588.78,735.46 587.02,735.37 581.56,732.19 581.39,732.5 
			586.26,735.34 584.52,735.25 579.06,732.07 578.88,732.37 583.76,735.21 581.2,735.08 581.18,735.43 583.74,735.56 578.61,737.9 
			578.75,738.21 584.5,735.6 586.24,735.68 581.11,738.02 581.25,738.34 587,735.72 588.76,735.81 583.63,738.15 583.77,738.47 
			589.52,735.85 598.01,736.28 591.7,741.98 585.6,743.59 585.69,743.93 591.14,742.49 589.83,743.67 583.73,745.28 583.81,745.62 
			589.27,744.18 587.98,745.35 581.87,746.96 581.96,747.3 587.41,745.86 585.38,747.69 585.61,747.95 587.65,746.12 585.67,751.4 
			585.99,751.52 588.21,745.61 589.5,744.44 587.53,749.72 587.85,749.84 590.07,743.93 591.37,742.75 589.4,748.03 589.72,748.15 
			591.94,742.24 598.24,736.54 597.82,745.03 594.64,750.48 594.94,750.66 597.78,745.78 597.69,747.54 594.51,753 594.81,753.18 
			597.65,748.3 597.56,750.04 594.38,755.5 594.68,755.68 597.52,750.8 597.4,753.37 597.74,753.38 597.87,750.82 600.21,755.96 
			600.53,755.81 597.91,750.06 598,748.32 600.34,753.45 600.65,753.31 598.04,747.56 598.13,745.8 600.46,750.94 600.78,750.79 
			598.16,745.04 598.59,736.55 604.29,742.86 605.9,748.97 606.24,748.88 604.8,743.42 605.98,744.73 607.59,750.84 607.93,750.75 
			606.49,745.29 607.66,746.59 609.27,752.69 609.61,752.6 608.17,747.15 		"/>
	</g>
	<g>
		<path className="st6" d="M447.39,535.85l-1.39-1.3c-0.96-0.9-2.46-0.85-3.36,0.11c-0.9,0.96-0.85,2.46,0.11,3.36l1.39,1.3
			c-3.94,5.89-3.17,13.93,2.18,18.93c5.94,5.55,15.26,5.23,20.81-0.71c5.55-5.94,5.23-15.26-0.71-20.81
			C461.07,531.74,453,531.52,447.39,535.85z"/>
		<polygon className="st9" points="462.88,540.67 462.74,540.54 461.78,541.57 462.61,538.6 462.43,538.55 461.5,541.87 460.85,542.56 
			461.68,539.6 461.5,539.55 460.57,542.87 459.91,543.57 460.74,540.61 460.56,540.56 459.63,543.87 456.46,547.26 456.3,542.63 
			457.78,539.51 457.61,539.43 456.29,542.21 456.26,541.25 457.73,538.14 457.56,538.06 456.24,540.84 456.21,539.89 
			457.69,536.77 457.52,536.69 456.2,539.47 456.15,537.98 455.96,537.99 456.01,539.48 454.5,536.8 454.33,536.89 456.02,539.89 
			456.05,540.84 454.55,538.16 454.38,538.25 456.07,541.26 456.1,542.22 454.59,539.54 454.43,539.63 456.11,542.63 456.27,547.27 
			452.88,544.1 451.73,540.86 451.55,540.92 452.58,543.82 451.88,543.16 450.72,539.92 450.54,539.98 451.58,542.88 450.88,542.23 
			449.72,538.99 449.54,539.05 450.58,541.95 449.55,540.99 449.42,541.13 450.45,542.09 447.48,541.25 447.43,541.44 
			450.75,542.37 451.45,543.02 448.48,542.19 448.43,542.37 451.75,543.3 452.45,543.96 449.49,543.13 449.44,543.31 452.75,544.24 
			456.14,547.41 451.51,547.56 448.39,546.09 448.31,546.26 451.09,547.58 450.13,547.61 447.02,546.13 446.94,546.31 
			449.72,547.63 448.77,547.66 445.66,546.18 445.57,546.35 448.35,547.67 446.86,547.72 446.87,547.91 448.36,547.86 
			445.68,549.37 445.77,549.53 448.77,547.85 449.73,547.82 447.04,549.32 447.13,549.49 450.14,547.8 451.1,547.77 448.42,549.28 
			448.51,549.44 451.51,547.75 456.15,547.6 452.98,550.99 449.74,552.14 449.8,552.32 452.7,551.29 452.04,551.99 448.8,553.15 
			448.86,553.33 451.76,552.29 451.11,552.99 447.87,554.15 447.93,554.32 450.83,553.29 449.81,554.38 449.95,554.51 
			450.97,553.42 450.14,556.38 450.32,556.44 451.25,553.12 451.9,552.42 451.07,555.39 451.25,555.44 452.18,552.12 452.84,551.42 
			452.01,554.38 452.19,554.43 453.12,551.12 456.29,547.73 456.45,552.36 454.97,555.47 455.14,555.56 456.46,552.78 
			456.49,553.74 455.01,556.85 455.19,556.93 456.51,554.15 456.54,555.1 455.06,558.21 455.23,558.3 456.55,555.52 456.6,556.91 
			456.79,556.91 456.74,555.51 458.25,558.19 458.42,558.1 456.73,555.09 456.7,554.14 458.2,556.83 458.37,556.73 456.68,553.73 
			456.65,552.77 458.16,555.45 458.32,555.36 456.64,552.35 456.48,547.72 459.87,550.89 461.02,554.13 461.2,554.07 460.17,551.17 
			460.87,551.82 462.03,555.07 462.21,555.01 461.17,552.11 461.87,552.76 463.03,556 463.21,555.94 462.17,553.04 463.26,554.06 
			463.39,553.92 462.3,552.9 465.27,553.73 465.32,553.55 462,552.62 461.3,551.97 464.27,552.8 464.32,552.62 461,551.69 
			460.3,551.03 463.26,551.86 463.31,551.68 460,550.75 456.61,547.58 461.24,547.42 464.35,548.9 464.44,548.73 461.66,547.41 
			462.62,547.38 465.73,548.85 465.81,548.68 463.03,547.36 463.98,547.33 467.09,548.81 467.18,548.64 464.4,547.32 465.79,547.27 
			465.79,547.08 464.39,547.13 467.07,545.62 466.98,545.45 463.98,547.14 463.02,547.17 465.71,545.67 465.61,545.5 462.61,547.19 
			461.65,547.22 464.33,545.71 464.24,545.55 461.24,547.23 456.6,547.39 459.77,544 463.01,542.85 462.95,542.67 460.05,543.7 
			460.71,543 463.95,541.84 463.89,541.66 460.99,542.69 461.64,542 464.88,540.84 464.82,540.66 461.92,541.7 		"/>
	</g>
</g>
</svg>
